<?xml version="1.0" encoding="utf-8"?>
<svg width="88" height="26" xmlns="http://www.w3.org/2000/svg">
  <path d="M12.871.5H75.13C81.96.5 87.5 6.039 87.5 12.871v.002c0 6.833-5.539 12.372-12.371 12.372H12.87C6.04 25.245.5 19.706.5 12.873v-.002C.5 6.04 6.039.5 12.871.5z" fill="none" stroke="#FFF"/>
  <g fill="#FFF">
    <path d="M23.493 12.247c-.016-1.76 1.44-2.617 1.507-2.657-.825-1.203-2.103-1.367-2.553-1.38-1.073-.114-2.115.642-2.662.642-.557 0-1.4-.632-2.307-.613-1.168.018-2.261.695-2.86 1.746-1.237 2.142-.315 5.29.87 7.022.593.85 1.286 1.796 2.192 1.762.887-.036 1.218-.566 2.289-.566 1.06 0 1.371.566 2.296.544.952-.014 1.551-.851 2.123-1.707.685-.971.96-1.93.971-1.979-.022-.007-1.848-.705-1.866-2.814M21.745 7.07c.477-.597.803-1.409.713-2.233-.69.03-1.554.478-2.051 1.062-.44.514-.833 1.357-.732 2.15.776.058 1.572-.391 2.07-.979"/>
    <path d="M35.1 18.647h1.24l-2.35-7.268h-1.444l-2.339 7.268h1.207l.647-2.135h2.36l.679 2.135zm-1.498-4.928l.614 1.898h-1.95l.603-1.898c.158-.604.273-1.06.345-1.37h.022c.179.72.301 1.176.366 1.37zM41.616 18.076c.484-.518.726-1.222.726-2.114 0-.797-.207-1.44-.619-1.93-.412-.49-.928-.734-1.546-.734-.79 0-1.38.313-1.767.94h-.022l-.065-.832h-1.024c.029.59.044 1.163.044 1.723v5.643h1.163v-2.75c.303.496.802.744 1.496.744.642 0 1.18-.23 1.614-.69zm-.804-3.333c.23.331.345.752.345 1.262 0 .554-.123 1-.367 1.338-.244.337-.585.506-1.024.506-.373 0-.676-.131-.91-.393q-.35-.395-.35-.965v-.875c0-.093.018-.21.054-.354.071-.31.224-.56.458-.75.233-.19.494-.286.78-.286.424 0 .762.173 1.014.517zM47.64 18.076c.485-.518.726-1.222.726-2.114 0-.797-.207-1.44-.619-1.93-.413-.49-.93-.734-1.546-.734-.791 0-1.38.313-1.768.94h-.022l-.065-.832h-1.023c.028.59.043 1.163.043 1.723v5.643h1.164v-2.75c.303.496.802.744 1.495.744.643 0 1.181-.23 1.615-.69zm-.805-3.333c.23.331.345.752.345 1.262 0 .554-.122 1-.367 1.338-.243.337-.584.506-1.023.506-.374 0-.678-.132-.911-.393a1.407 1.407 0 01-.35-.965v-.875c0-.093.019-.21.054-.354.072-.31.225-.56.458-.75.234-.19.495-.286.782-.286.423 0 .76.173 1.012.517z" fill-rule="evenodd"/>
    <path d="M55.102 16.61c0 .617-.216 1.12-.646 1.509-.473.423-1.133.636-1.979.636-.781 0-1.408-.15-1.88-.453l.269-.97c.51.302 1.07.453 1.68.453.44 0 .78-.1 1.024-.297a.968.968 0 00.367-.792c0-.295-.101-.543-.302-.744-.201-.2-.534-.389-1.002-.56-1.271-.475-1.908-1.17-1.908-2.082 0-.597.225-1.085.673-1.467.449-.38 1.044-.571 1.784-.571.661 0 1.212.115 1.649.345l-.292.949a2.882 2.882 0 00-1.396-.334c-.41 0-.733.1-.963.302a.865.865 0 00-.292.658c0 .287.112.525.335.711.193.173.546.36 1.056.561.625.253 1.084.547 1.379.884.296.338.444.759.444 1.261M58.959 14.28h-1.283v2.545c0 .647.226.97.68.97.207 0 .38-.018.516-.054l.032.884c-.229.086-.53.129-.904.129-.46 0-.819-.141-1.079-.421-.258-.281-.388-.751-.388-1.413v-2.642h-.763v-.874h.763v-.96l1.143-.344v1.304h1.283v.876"/>
    <path d="M64.045 17.968c.46-.517.69-1.179.69-1.984 0-.785-.222-1.423-.669-1.918-.468-.51-1.084-.766-1.854-.766-.797 0-1.431.26-1.902.777-.47.517-.705 1.182-.705 1.994 0 .776.228 1.42.684 1.93.456.51 1.068.765 1.838.765.797 0 1.437-.266 1.918-.798zm-.828-3.194c.208.345.311.756.311 1.237 0 .48-.107.895-.32 1.248-.253.422-.602.635-1.046.635-.455 0-.806-.208-1.058-.625-.21-.343-.312-.756-.312-1.237 0-.494.103-.913.312-1.258.243-.416.601-.624 1.067-.624.452 0 .802.208 1.046.624z" fill-rule="evenodd"/>
    <path d="M68.519 14.43a2.025 2.025 0 00-.367-.031c-.41 0-.726.153-.949.464-.193.273-.29.618-.29 1.034v2.75h-1.164v-3.59c0-.604-.011-1.155-.034-1.65h1.014l.043 1.003h.032c.123-.345.316-.623.582-.83.26-.188.539-.282.84-.282.108 0 .205.009.292.022v1.11"/>
    <path d="M73.68 16.307c.03-.144.043-.32.043-.528 0-.654-.154-1.204-.462-1.648-.388-.56-.96-.84-1.714-.84-.769 0-1.38.28-1.831.84-.433.525-.648 1.183-.648 1.972 0 .804.233 1.447.695 1.925.464.477 1.102.717 1.914.717.674 0 1.26-.109 1.756-.324l-.183-.809a3.848 3.848 0 01-1.412.248c-.467 0-.848-.122-1.142-.366-.324-.273-.493-.67-.506-1.187h3.49zm-1.292-1.725c.157.252.234.55.225.895l-2.423-.001c.036-.35.15-.654.344-.906.236-.316.546-.474.927-.474.415 0 .725.161.927.486zM30.813 8.178h-.267v1.44h.543v-.955h2.28v.954h.542V8.178h-.446V5.203h-1.782a7.812 7.812 0 01-.297 1.567c-.154.52-.345.99-.573 1.408zM31.89 6.94c.142-.472.23-.888.264-1.246h.746v2.485h-1.494c.181-.353.343-.766.484-1.239zm4.833.41c0 .429-.109.762-.328 1.002-.218.24-.523.36-.913.36-.244 0-.46-.055-.647-.166a1.093 1.093 0 01-.431-.476 1.624 1.624 0 01-.151-.72c0-.423.108-.755.325-.993.217-.238.523-.357.918-.357.378 0 .677.121.897.365.22.244.33.573.33.986zm1.69 1.362c-.395 0-.695-.116-.9-.347-.205-.231-.308-.563-.308-.995 0-.44.107-.779.322-1.015.215-.237.525-.355.931-.355.275 0 .523.05.743.153l-.167.448c-.235-.092-.428-.138-.58-.138-.452 0-.678.301-.678.902 0 .294.056.514.169.662.112.147.277.22.494.22.247 0 .48-.06.701-.184v.485c-.099.059-.205.1-.317.126a1.9 1.9 0 01-.41.038zm14.59-.36c.219-.24.328-.573.328-1.001 0-.413-.11-.742-.33-.986-.22-.244-.52-.365-.897-.365-.395 0-.701.119-.918.357-.217.238-.326.57-.326.994 0 .273.05.513.151.72.1.206.245.365.432.475.187.11.403.166.647.166.39 0 .694-.12.913-.36zm-11.288-1.87v-.435H39.46v.435h.85v2.182h.556V6.481h.85zm.106-.435h.604l.531 1.484c.08.211.134.41.16.596h.02c.014-.087.04-.192.078-.316.037-.124.237-.712.599-1.764h.6L43.296 9.01c-.203.545-.541.817-1.015.817-.122 0-.242-.014-.358-.04v-.44c.083.018.178.028.285.028.268 0 .456-.156.564-.466l.097-.247-1.048-2.617zm5.27 2.617V6.046H44.81v2.617h.555V6.486h1.17v2.177h.557zm1.348-2.617v1.05h1.23v-1.05h.554v2.617h-.555V7.535h-1.23v1.128h-.554V6.046h.555zm8.51 1.23c.36-.064.54-.251.54-.56 0-.447-.341-.67-1.024-.67h-1.241v2.617h1.246c.358 0 .632-.066.82-.2a.658.658 0 00.282-.571.54.54 0 00-.16-.405c-.108-.104-.262-.168-.463-.191v-.02zm-21.457.98c-.446 0-.668-.302-.668-.906 0-.289.052-.51.157-.665.104-.155.273-.232.506-.232.443 0 .665.299.665.897 0 .604-.22.906-.66.906zm15.94-.906c0 .604.222.906.667.906.44 0 .66-.302.66-.906 0-.598-.221-.897-.665-.897-.233 0-.401.077-.506.232-.105.155-.157.376-.157.665zm5.381-.813c.081.047.122.122.122.226 0 .126-.048.213-.144.262-.096.048-.237.072-.423.072h-.59v-.63h.673c.16 0 .281.023.362.07zm.19 1.322c0-.126-.049-.216-.146-.269-.098-.053-.244-.08-.44-.08h-.639v.742h.654c.38 0 .571-.131.571-.393z" fill-rule="evenodd"/>
  </g>
</svg>
