<svg width="128" height="36" xmlns="http://www.w3.org/2000/svg">
  <path d="M17.999.5h92.002c9.664 0 17.499 7.835 17.499 17.499v.002c0 9.664-7.835 17.499-17.499 17.499H17.999C8.335 35.5.5 27.665.5 18.001v-.002C.5 8.335 8.335.5 17.999.5z" fill="none" stroke="#FFF"/>
  <g fill="#FFF">
    <path d="M35.442 16.34c-.023-2.575 2.112-3.828 2.21-3.886-1.21-1.76-3.084-2.001-3.743-2.02-1.574-.166-3.1.94-3.902.94-.818 0-2.053-.924-3.383-.897-1.713.026-3.315 1.016-4.194 2.554-1.813 3.134-.46 7.74 1.277 10.274.869 1.241 1.884 2.626 3.213 2.577 1.3-.053 1.787-.828 3.356-.828 1.555 0 2.01.828 3.366.796 1.396-.02 2.274-1.246 3.113-2.498 1.004-1.42 1.408-2.823 1.424-2.895-.032-.01-2.71-1.03-2.737-4.117M32.881 8.767c.7-.873 1.178-2.061 1.045-3.267-1.012.045-2.278.7-3.007 1.553-.645.753-1.22 1.987-1.072 3.147 1.137.085 2.305-.573 3.034-1.433"/>
  </g>
  <g fill="#FFF">
    <path d="M51.622 26.344h1.789L50.02 15.71h-2.085l-3.375 10.633h1.741l.934-3.123h3.406l.98 3.123zm-2.162-7.21l.886 2.776h-2.815l.871-2.775c.228-.884.394-1.552.498-2.004h.032c.258 1.051.435 1.72.528 2.004zM61.026 25.507c.699-.756 1.048-1.787 1.048-3.09 0-1.168-.299-2.11-.893-2.826-.596-.715-1.34-1.072-2.232-1.072-1.14 0-1.99.458-2.55 1.374h-.032l-.094-1.216h-1.477c.041.861.062 1.701.062 2.52v8.255h1.68v-4.023c.437.726 1.157 1.088 2.158 1.088.927 0 1.705-.336 2.33-1.01zm-1.16-4.874c.331.484.497 1.1.497 1.845 0 .81-.177 1.463-.53 1.957-.352.493-.844.742-1.476.742-.54 0-.977-.193-1.314-.576q-.506-.578-.506-1.412v-1.28c0-.136.026-.308.078-.518.103-.453.324-.818.66-1.097a1.728 1.728 0 011.128-.419c.611 0 1.099.254 1.462.758zM69.72 25.507c.699-.756 1.048-1.787 1.048-3.09 0-1.168-.3-2.11-.894-2.826-.596-.715-1.341-1.072-2.232-1.072-1.141 0-1.991.458-2.55 1.374h-.032l-.094-1.216H63.49c.041.861.063 1.701.063 2.52v8.255h1.679v-4.023c.438.726 1.158 1.088 2.158 1.088.928 0 1.705-.336 2.331-1.01zm-1.163-4.874q.499.726.499 1.845c0 .81-.176 1.463-.53 1.957-.35.493-.843.742-1.476.742-.54 0-.979-.194-1.316-.576-.335-.386-.505-.856-.505-1.412v-1.28c0-.136.028-.308.08-.518a1.94 1.94 0 01.66-1.097 1.735 1.735 0 011.128-.419c.611 0 1.098.254 1.46.758z" fill-rule="evenodd"/>
    <path d="M80.488 23.362c0 .905-.311 1.64-.932 2.209-.682.62-1.634.93-2.855.93-1.128 0-2.033-.22-2.715-.662l.389-1.42a4.63 4.63 0 002.426.663c.633 0 1.125-.145 1.477-.434.353-.29.53-.675.53-1.158 0-.432-.147-.795-.437-1.09-.29-.293-.77-.568-1.445-.819-1.835-.694-2.754-1.71-2.754-3.045 0-.873.325-1.587.971-2.146.648-.557 1.507-.836 2.575-.836.954 0 1.748.168 2.38.505l-.422 1.388c-.594-.326-1.264-.489-2.014-.489-.593 0-1.058.148-1.39.442-.28.263-.422.583-.422.964 0 .42.162.768.484 1.04.279.252.787.527 1.523.82.903.37 1.565.8 1.99 1.293.428.494.641 1.11.641 1.845M86.055 19.955h-1.851v3.723c0 .947.326 1.419.98 1.419.3 0 .549-.026.746-.08l.046 1.294c-.33.126-.766.189-1.305.189-.664 0-1.182-.206-1.557-.616-.373-.411-.56-1.099-.56-2.067v-3.865h-1.102v-1.278h1.102V17.27l1.65-.505v1.909h1.85v1.281"/>
    <path d="M93.395 25.35c.664-.757.995-1.724.995-2.903 0-1.147-.32-2.081-.965-2.806-.675-.745-1.565-1.12-2.675-1.12-1.15 0-2.066.38-2.745 1.136-.677.757-1.018 1.73-1.018 2.918 0 1.135.329 2.077.987 2.823.659.746 1.542 1.12 2.653 1.12 1.15 0 2.074-.39 2.768-1.168zM92.2 20.678c.3.504.45 1.106.45 1.808 0 .704-.156 1.31-.464 1.827-.364.617-.868.928-1.509.928-.657 0-1.163-.304-1.527-.914-.301-.501-.45-1.105-.45-1.809 0-.723.149-1.336.45-1.84.351-.61.869-.913 1.54-.913.653 0 1.158.304 1.51.913z" fill-rule="evenodd"/>
    <path d="M99.851 20.175a2.884 2.884 0 00-.529-.046c-.59 0-1.048.224-1.369.678-.28.4-.419.904-.419 1.514v4.023h-1.68V21.09c0-.882-.016-1.689-.048-2.413h1.463l.061 1.467h.047c.178-.504.456-.911.84-1.215a2.01 2.01 0 011.213-.411c.155 0 .295.012.42.03l.001 1.626"/>
    <path d="M107.3 22.92c.043-.21.062-.467.062-.772 0-.957-.223-1.762-.667-2.412-.56-.82-1.384-1.23-2.473-1.23-1.11 0-1.99.41-2.643 1.23-.624.768-.934 1.731-.934 2.886 0 1.176.335 2.117 1.002 2.816.67.698 1.59 1.048 2.762 1.048.974 0 1.819-.158 2.534-.474l-.263-1.182c-.612.243-1.293.363-2.038.363-.674 0-1.224-.18-1.648-.536-.467-.4-.712-.98-.73-1.737h5.037zm-1.865-2.524c.227.37.338.804.326 1.31l-3.498-.002c.052-.513.218-.956.497-1.324.34-.464.787-.695 1.337-.695.6 0 1.047.237 1.338.711z" fill-rule="evenodd"/>
  </g>
  <g fill="#FFF">
    <path d="M49.013 12.05h.879l-1.665-5.227h-1.023l-1.657 5.227h.855l.459-1.535h1.672l.48 1.535zm-1.06-3.544l.435 1.365h-1.382l.427-1.365c.115-.434.191-.76.244-.984h.016c.13.52.214.844.26.984z" fill-rule="evenodd"/>
    <path d="M54.034 8.282L52.63 12.05h-.801l-1.36-3.768h.886l.634 1.992c.107.333.199.651.267.953h.023a12.7 12.7 0 01.266-.953l.627-1.992h.863"/>
    <path d="M56.964 11.616l.061.434h.742a5.683 5.683 0 01-.053-.9V9.764c0-1.04-.49-1.559-1.459-1.559-.504 0-.931.109-1.275.326l.167.55c.282-.186.603-.28.97-.28.51 0 .77.25.77.746v.07c-1.374 0-2.167.48-2.167 1.41 0 .636.473 1.11 1.137 1.11.466 0 .832-.171 1.084-.52h.023zm-1.428-.683c0-.535.458-.76 1.374-.76v.581c0 .442-.389.767-.81.767-.327 0-.564-.193-.564-.588zM59.061 7.157c0 .286.377.504.86.504.54 0 .915-.202.915-.504.014-.287-.39-.497-.887-.497-.499 0-.888.21-.888.497zm1.614 4.893V8.282h-1.452v3.768h1.452z" fill-rule="evenodd"/>
    <path d="M61.442 6.553h.825v5.497h-.825V6.553z"/>
    <path d="M65.708 11.616l.062.434h.74a5.913 5.913 0 01-.051-.9V9.762c0-1.04-.49-1.559-1.46-1.559-.504 0-.93.109-1.275.326l.169.552c.281-.187.602-.28.969-.28.511 0 .77.248.77.745v.07c-1.374 0-2.167.48-2.167 1.41 0 .636.473 1.11 1.137 1.11.466 0 .832-.171 1.084-.52h.022zm-1.427-.683c0-.535.458-.76 1.375-.76v.581c0 .442-.39.767-.81.767-.328 0-.565-.193-.565-.588zM68.63 11.468c.253.442.642.667 1.168.667.946 0 1.642-.853 1.642-2.023 0-1.131-.626-1.907-1.52-1.907-.542 0-.939.21-1.183.628h-.015v-2.28h-.826v4.481c0 .372-.008.714-.03 1.016h.702l.047-.582h.016zm.092-1.605c0-.582.434-1 .908-1 .588 0 .97.52.971 1.28 0 .814-.368 1.325-.985 1.325-.504 0-.894-.427-.894-.946v-.66z" fill-rule="evenodd"/>
    <path d="M72.66 6.553h.823v5.497h-.823V6.553z"/>
    <path d="M75.496 10.367h2.475c.023-.1.03-.233.028-.38 0-1.077-.597-1.79-1.543-1.79-1.052 0-1.756.868-1.756 2.023 0 1.154.687 1.9 1.848 1.9.48 0 .893-.078 1.244-.233l-.128-.582a2.746 2.746 0 01-1 .178c-.688 0-1.152-.403-1.168-1.116zm.901-1.59c.527 0 .818.411.818.993h-1.72c.056-.574.429-.992.902-.992zM81.18 10.197c0 1.116.703 1.938 1.787 1.938 1.108 0 1.849-.822 1.849-2 0-1.148-.72-1.93-1.787-1.93-1.13 0-1.848.828-1.848 1.992zm.842-.024c0-.791.381-1.357.977-1.357.58 0 .961.574.961 1.34 0 .753-.39 1.358-.97 1.358-.579 0-.968-.565-.968-1.341z" fill-rule="evenodd"/>
    <path d="M89.248 12.05h-.823V9.886c0-.666-.252-1-.749-1-.488 0-.825.426-.825.922v2.242h-.823V9.359c0-.334-.01-.69-.031-1.078h.725l.039.581h.023c.22-.402.671-.659 1.175-.659.778 0 1.289.605 1.289 1.59v2.257M94.642 8.91h-.907v1.83c0 .465.16.698.48.698.145 0 .268-.016.366-.04l.023.636c-.16.063-.375.094-.64.094-.65 0-1.038-.364-1.038-1.318v-1.9h-.54v-.628h.54v-.69l.809-.25v.939h.907v.629M99.008 12.05h-.825V9.902c0-.674-.253-1.016-.748-1.016-.428 0-.824.295-.824.892v2.272h-.825V6.553h.825v2.263h.016c.258-.41.634-.613 1.114-.613.786 0 1.267.62 1.267 1.605v2.242"/>
    <path d="M100.746 10.367h2.474c.023-.1.031-.233.028-.38 0-1.077-.596-1.79-1.543-1.79-1.052 0-1.755.868-1.755 2.023 0 1.154.687 1.9 1.847 1.9.482 0 .895-.078 1.245-.233l-.13-.582c-.295.116-.63.178-.998.178-.688 0-1.152-.403-1.168-1.116zm.902-1.59c.527 0 .816.411.816.993h-1.718c.055-.574.428-.992.902-.992z" fill-rule="evenodd"/>
  </g>
</svg>
