<?xml version="1.0" encoding="utf-8"?>
<svg width="131" height="45" xmlns="http://www.w3.org/2000/svg">
  <path d="M22.499.5h85.978c12.15 0 21.999 9.85 21.999 21.999v.002c0 12.15-9.849 21.999-21.999 21.999H22.499C10.349 44.5.5 34.65.5 22.501v-.002C.5 10.349 10.35.5 22.499.5z" fill="none" stroke="#FFF"/>
  <g fill="#FFF">
    <path d="M28.955 21.493c-.029-3.148 2.577-4.679 2.696-4.75-1.476-2.151-3.763-2.445-4.567-2.469-1.92-.202-3.784 1.15-4.762 1.15-.998 0-2.505-1.13-4.129-1.097-2.09.032-4.045 1.242-5.117 3.121-2.213 3.83-.562 9.46 1.558 12.557 1.06 1.518 2.3 3.21 3.922 3.15 1.586-.064 2.18-1.011 4.094-1.011 1.897 0 2.454 1.011 4.108.972 1.703-.025 2.776-1.522 3.8-3.053 1.225-1.736 1.717-3.45 1.736-3.538-.039-.013-3.306-1.26-3.34-5.032M25.83 12.237c.853-1.067 1.437-2.52 1.275-3.993-1.235.055-2.78.855-3.67 1.899-.787.92-1.49 2.427-1.308 3.845 1.387.104 2.812-.7 3.703-1.75"/>
  </g>
  <g fill="#FFF">
    <path d="M49.72 32.938h2.218l-4.203-12.996h-2.584l-4.184 12.996h2.159l1.157-3.817h4.223l1.214 3.817zm-2.68-8.811l1.1 3.392h-3.49l1.08-3.392c.282-1.08.488-1.897.617-2.45h.039c.32 1.286.539 2.102.655 2.45zM61.38 31.915c.866-.925 1.298-2.184 1.298-3.778 0-1.427-.37-2.577-1.107-3.453-.738-.874-1.661-1.31-2.766-1.31-1.414 0-2.468.56-3.162 1.68h-.04l-.116-1.487h-1.83a63.96 63.96 0 01.076 3.08v10.09h2.082V31.82c.542.887 1.435 1.33 2.676 1.33 1.15 0 2.113-.412 2.889-1.235zm-1.44-5.958c.412.592.617 1.344.617 2.256 0 .99-.218 1.787-.656 2.392-.436.602-1.047.906-1.83.906-.669 0-1.212-.235-1.63-.704q-.627-.706-.627-1.726v-1.564c0-.166.033-.376.097-.633.128-.554.401-1 .82-1.34a2.16 2.16 0 011.397-.512c.758 0 1.362.31 1.812.925zM72.157 31.915c.866-.925 1.299-2.184 1.299-3.778 0-1.427-.371-2.577-1.108-3.453-.739-.874-1.663-1.31-2.767-1.31-1.415 0-2.469.56-3.162 1.68h-.04l-.115-1.487h-1.831a63.96 63.96 0 01.077 3.08v10.09h2.082V31.82c.543.887 1.435 1.33 2.675 1.33 1.15 0 2.114-.412 2.89-1.235zm-1.441-5.958q.618.888.618 2.256c0 .99-.219 1.787-.656 2.392-.436.602-1.046.906-1.831.906-.67 0-1.213-.236-1.631-.704-.416-.47-.626-1.046-.626-1.726v-1.564c0-.166.034-.376.097-.633.128-.554.402-1 .819-1.34a2.17 2.17 0 011.4-.512c.757 0 1.36.31 1.81.925z" fill-rule="evenodd"/>
    <path d="M85.507 29.293c0 1.106-.386 2.005-1.156 2.7-.845.757-2.026 1.137-3.54 1.137-1.398 0-2.519-.27-3.365-.81l.482-1.735c.913.54 1.916.81 3.007.81.786 0 1.396-.177 1.831-.53.438-.354.658-.826.658-1.415 0-.529-.182-.972-.541-1.332-.36-.359-.956-.695-1.792-1.001-2.276-.849-3.414-2.091-3.414-3.723 0-1.066.402-1.94 1.204-2.622.803-.681 1.867-1.022 3.191-1.022 1.183 0 2.168.206 2.95.617l-.522 1.697c-.737-.398-1.568-.598-2.497-.598-.735 0-1.312.181-1.723.54a1.546 1.546 0 00-.523 1.178c0 .513.2.939.6 1.272.345.308.976.643 1.888 1.003 1.12.45 1.94.976 2.468 1.58.53.603.794 1.356.794 2.254M92.407 25.13h-2.295v4.55c0 1.156.404 1.733 1.215 1.733.372 0 .68-.03.925-.096l.057 1.58c-.41.154-.95.231-1.618.231-.823 0-1.465-.252-1.93-.753-.462-.502-.694-1.342-.694-2.526v-4.723h-1.366v-1.563h1.366v-1.716l2.045-.617v2.333h2.295v1.567"/>
    <path d="M101.507 31.723c.823-.925 1.234-2.107 1.234-3.548 0-1.402-.398-2.544-1.196-3.43-.837-.91-1.94-1.369-3.317-1.369-1.426 0-2.561.464-3.403 1.39-.84.924-1.262 2.113-1.262 3.565 0 1.388.408 2.538 1.224 3.45.816.913 1.911 1.369 3.288 1.369 1.427 0 2.571-.476 3.432-1.427zm-1.482-5.71c.372.615.558 1.352.558 2.21 0 .86-.193 1.601-.574 2.232-.453.754-1.077 1.135-1.871 1.135-.815 0-1.443-.372-1.893-1.117-.374-.613-.559-1.352-.559-2.211 0-.885.185-1.634.559-2.25.435-.744 1.076-1.115 1.91-1.115.808 0 1.434.371 1.87 1.115z" fill-rule="evenodd"/>
    <path d="M109.512 25.398a3.625 3.625 0 00-.657-.057c-.732 0-1.298.275-1.697.83-.347.488-.52 1.105-.52 1.85v4.917h-2.081v-6.42c0-1.08-.02-2.064-.06-2.95h1.813l.076 1.793h.057c.221-.616.567-1.113 1.041-1.485a2.514 2.514 0 011.505-.502c.192 0 .366.014.52.038l.003 1.986"/>
    <path d="M118.747 28.753c.052-.257.076-.571.076-.944 0-1.169-.276-2.153-.827-2.947-.693-1.002-1.716-1.503-3.066-1.503-1.375 0-2.468.5-3.277 1.503-.773.938-1.158 2.115-1.158 3.527 0 1.437.416 2.587 1.243 3.441.83.854 1.97 1.281 3.424 1.281 1.207 0 2.255-.193 3.141-.579l-.326-1.445c-.758.297-1.602.443-2.527.443-.835 0-1.517-.218-2.043-.654-.579-.488-.883-1.197-.905-2.123h6.245zm-2.314-3.085c.283.452.42.983.405 1.6l-4.336-.001c.063-.627.27-1.169.616-1.62.422-.566.976-.848 1.657-.848.743 0 1.298.29 1.658.87z" fill-rule="evenodd"/>
  </g>
  <path d="M41.559 14.068h.551q.708-1.294 1.187-2.905.478-1.611.615-3.232H47.6v6.137h.922v2.97h-1.123v-1.969h-4.716v1.968h-1.123v-2.969zm3.33-5.127q-.108 1.109-.547 2.571-.44 1.463-1.001 2.556h3.09V8.941H44.89zm9.453 3.418q0 1.324-.679 2.066-.679.742-1.89.742-.756 0-1.337-.342-.582-.342-.894-.981-.313-.64-.313-1.485 0-1.313.674-2.05.674-.738 1.9-.738 1.172 0 1.855.755.684.754.684 2.033zm1.633 2.093q.637.715 1.863.715.498 0 .847-.078.35-.078.657-.259v-1q-.684.38-1.45.38-.674 0-1.023-.457-.35-.456-.35-1.364 0-1.86 1.402-1.86.473 0 1.201.283l.347-.923q-.684-.318-1.538-.318-1.26 0-1.927.733-.666.732-.666 2.094 0 1.338.637 2.054zm32.727-2.093q0 1.324-.679 2.066-.678.742-1.89.742-.756 0-1.337-.342t-.894-.981q-.312-.64-.312-1.485 0-1.313.674-2.05.674-.738 1.9-.738 1.171 0 1.855.755.683.754.683 2.033zM64.67 9.67v.898H62.91v4.502H61.76v-4.502H60V9.67h4.668zm1.47 0h-1.25l2.168 5.4-.2.508q-.337.962-1.167.962-.333 0-.591-.059v.909q.361.083.742.083 1.47 0 2.1-1.685L70.25 9.67h-1.24q-1.123 3.257-1.24 3.64-.118.383-.162.652h-.039q-.083-.576-.332-1.23L66.14 9.668zm9.653 0v5.4H74.64v-4.492h-2.422v4.492H71.07v-5.4h4.722zm2.788 2.168V9.669h-1.147v5.4h1.147V12.74h2.544v2.33h1.148V9.668h-1.148v2.168H78.58zm17.608.371q1.118-.2 1.118-1.157 0-1.382-2.12-1.382h-2.568v5.4h2.578q1.114 0 1.697-.412.584-.413.584-1.18 0-.512-.332-.834-.332-.323-.957-.396v-.039zm-45.777.151q0 1.87 1.382 1.87 1.367 0 1.367-1.87 0-1.85-1.377-1.85-.722 0-1.047.478-.325.479-.325 1.372zm34.36 0q0 1.87 1.382 1.87 1.367 0 1.367-1.87 0-1.85-1.376-1.85-.723 0-1.048.478-.325.479-.325 1.372zm11.136-1.677q.251.144.251.466 0 .391-.298.54-.297.149-.874.149h-1.22v-1.299h1.391q.498 0 .75.144zm.09 2.173q.303.164.303.554 0 .81-1.182.81h-1.352v-1.528h1.323q.605 0 .908.164z" fill="#FFF"/>
</svg>
