<svg width="45" height="45" xmlns="http://www.w3.org/2000/svg">
  <g fill-rule="evenodd">
    <path d="M45 22.5C45 34.926 34.926 45 22.5 45S0 34.926 0 22.5 10.074 0 22.5 0 45 10.074 45 22.5zm-44.043 0c0 11.898 9.645 21.543 21.543 21.543S44.043 34.398 44.043 22.5 34.398.957 22.5.957.957 10.602.957 22.5z" fill="#DCDCDC"/>
    <path d="M29.721 19.217l2.816 2.946c-.299-5.417-4.785-9.716-10.276-9.716-5.685 0-10.293 4.608-10.293 10.292 0 5.685 4.608 10.293 10.293 10.293 2.737 0 5.303-1.072 7.215-2.953l.672.683a11.213 11.213 0 01-7.887 3.227c-6.213 0-11.25-5.037-11.25-11.25s5.037-11.25 11.25-11.25c5.986 0 10.88 4.676 11.23 10.575l2.326-2.82.738.608-3.497 4.241-4.029-4.214.692-.662zm-2.913 4.172c0 1.485-1.09 2.64-2.514 2.64v.957c1.965 0 3.472-1.595 3.472-3.597 0-1.272-1.06-3.533-3.186-6.89l-.385-.607-.412.589c-.13.184-.265.38-.447.643l-.46.669c-.06.084-.114.163-.166.238-.39.562-.692.986-.967 1.354l.767.573a48.77 48.77 0 001.153-1.62l.461-.67.03-.043c1.768 2.86 2.654 4.81 2.654 5.764zm-3.35 2.223a3.59 3.59 0 01-7.182 0c0-1.272 1.06-3.533 3.186-6.89l.405-.639.404.639c2.126 3.357 3.186 5.618 3.186 6.89zm-3.591 2.633a2.633 2.633 0 002.633-2.633c0-.95-.88-2.889-2.633-5.731-1.754 2.842-2.633 4.781-2.633 5.73a2.633 2.633 0 002.633 2.634z" fill="#FF5252"/>
  </g>
</svg>
