<svg width="45" height="45" xmlns="http://www.w3.org/2000/svg">
  <g fill-rule="evenodd">
    <path d="M45 22.5C45 34.926 34.926 45 22.5 45S0 34.926 0 22.5 10.074 0 22.5 0 45 10.074 45 22.5zm-44.043 0c0 11.898 9.645 21.543 21.543 21.543S44.043 34.398 44.043 22.5 34.398.957 22.5.957.957 10.602.957 22.5z" fill="#DCDCDC"/>
    <path d="M13.546 15.469h14.393c1.656 0 2.998 1.443 2.998 3.222v1.866l4.22-2.276v10.547l-4.22-2.214v1.1c0 1.78-1.342 3.224-2.998 3.224H13.546c-1.657 0-3-1.443-3-3.223V18.69c0-1.78 1.343-3.222 3-3.222zm0 1.289c-.994 0-1.8.866-1.8 1.933v9.024c0 1.068.806 1.933 1.8 1.933h14.393c.994 0 1.8-.865 1.8-1.933V18.69c0-1.067-.806-1.933-1.8-1.933H13.546z" fill="#FF5252"/>
  </g>
</svg>
