<svg width="45" height="45" xmlns="http://www.w3.org/2000/svg">
  <path d="M45 22.5C45 34.926 34.926 45 22.5 45S0 34.926 0 22.5 10.074 0 22.5 0 45 10.074 45 22.5zm-44.043 0c0 11.898 9.645 21.543 21.543 21.543 11.897 0 21.542-9.645 21.542-21.543S34.397.958 22.5.958C10.602.958.957 10.602.957 22.5z" fill="#DCDCDC" fill-rule="evenodd"/>
  <g fill="#FF5252">
    <path d="M37.315 16.527c0 1.188-.947 2.15-2.115 2.15-1.168 0-2.115-.962-2.115-2.15s.947-2.15 2.115-2.15c1.168 0 2.115.962 2.115 2.15zm-3.29 0c0 .66.527 1.195 1.176 1.195.649 0 1.175-.535 1.175-1.195s-.526-1.194-1.175-1.194c-.65 0-1.176.534-1.176 1.194zM29.795 26.085c0 1.188-.947 2.15-2.115 2.15-1.169 0-2.116-.962-2.116-2.15s.947-2.15 2.116-2.15c1.168 0 2.115.962 2.115 2.15zm-3.29 0c0 .66.526 1.195 1.175 1.195s1.175-.535 1.175-1.195-.526-1.195-1.175-1.195c-.65 0-1.175.535-1.175 1.195zM19.924 19.872c0 1.188-.947 2.15-2.115 2.15-1.169 0-2.116-.962-2.116-2.15 0-1.187.947-2.15 2.116-2.15 1.168 0 2.115.963 2.115 2.15zm-3.29 0c0 .66.526 1.195 1.175 1.195s1.175-.535 1.175-1.195-.526-1.194-1.175-1.194c-.65 0-1.176.534-1.176 1.194zM12.873 29.43c0 1.189-.947 2.152-2.115 2.152-1.168 0-2.115-.963-2.115-2.151 0-1.188.947-2.15 2.115-2.15 1.168 0 2.115.962 2.115 2.15zm-3.29 0c0 .66.526 1.196 1.175 1.196s1.175-.535 1.175-1.195-.526-1.195-1.175-1.195c-.65 0-1.175.535-1.175 1.195z" fill-rule="evenodd"/>
    <path d="M33.946 17.529l-5.752 7.442.74.59 5.75-7.442-.738-.59zM16.508 20.403l-4.993 7.482.778.537 4.993-7.482-.778-.537zM19.279 20.415l7.397 4.298-.467.83-7.397-4.298.467-.83z"/>
  </g>
</svg>
