<svg width="45" height="45" xmlns="http://www.w3.org/2000/svg">
  <path d="M44.978 22.5c0 12.414-10.064 22.478-22.478 22.478C10.086 44.978.022 34.914.022 22.5.022 10.086 10.086.022 22.5.022c12.414 0 22.478 10.064 22.478 22.478zm-44 0c0 11.886 9.636 21.522 21.522 21.522S44.022 34.386 44.022 22.5 34.386.978 22.5.978.978 10.614.978 22.5z" fill="#DCDCDC" fill-rule="evenodd"/>
  <g fill="#FF5252">
    <path d="M14.717 14.63l5.056 5.618.728-.654-5.057-5.619-.727.655z"/>
    <path d="M21.521 16.867a3.913 3.913 0 11-7.826 0 3.913 3.913 0 017.826 0zm-6.847 0a2.935 2.935 0 105.87 0 2.935 2.935 0 00-5.87 0zM34.048 22.87a5.136 5.136 0 10-7.264-7.263L15.371 27.021a5.136 5.136 0 007.263 7.263L34.048 22.87zM27.476 16.3a4.158 4.158 0 015.88 5.88L21.942 33.592a4.158 4.158 0 11-5.88-5.88L27.476 16.3z" fill-rule="evenodd"/>
    <path d="M26.374 26.848l-3.459-3.459-5.534 5.534a2.446 2.446 0 003.459 3.459l5.534-5.534zm-8.302 2.766l4.842-4.842 2.076 2.076-4.843 4.842a1.467 1.467 0 11-2.075-2.076z" fill-rule="evenodd"/>
  </g>
</svg>
