<svg width="360" height="787" xmlns="http://www.w3.org/2000/svg">
  <defs>
    <linearGradient x1=".5" y1="0" x2=".48" y2="2.102" id="a">
      <stop offset="0" stop-color="#F26A35"/>
      <stop offset="1" stop-color="#CA2061"/>
    </linearGradient>
    <linearGradient x1=".5" y1="1.031" x2=".5" y2="0" id="b">
      <stop offset="0" stop-color="#EE3048"/>
      <stop offset="1" stop-color="#F26A35"/>
    </linearGradient>
  </defs>
  <g fill-opacity=".524">
    <path d="M0 0h690.994v787s-69.819-112.842-172.389-112.842c-102.569 0-248.686 74.698-346.216 74.698C74.858 748.856 0 673.652 0 673.652V0z" transform="matrix(-1 0 0 1 643 0)" fill="url(#a)"/>
    <path d="M0 0h690.82s20.357 626.907.006 705.598c-20.351 78.691-69.735-39.893-172.172-39.893S270.29 742 172.885 742 0 592.53 0 592.53V0z" fill="url(#b)" style="mix-blend-mode:multiply" transform="translate(-48)"/>
  </g>
</svg>
