<svg width="768" height="594" xmlns="http://www.w3.org/2000/svg">
  <defs>
    <linearGradient x1=".5" y1="0" x2=".48" y2="2.102" id="a">
      <stop offset="0" stop-color="#F26A35"/>
      <stop offset="1" stop-color="#CA2061"/>
    </linearGradient>
    <linearGradient x1=".5" y1="1.031" x2=".5" y2="0" id="b">
      <stop offset="0" stop-color="#EE3048"/>
      <stop offset="1" stop-color="#F26A35"/>
    </linearGradient>
  </defs>
  <g fill-opacity=".524">
    <path d="M0 0h859.992v604s-86.895-75.132-214.55-75.132c-127.655 0-309.508 49.735-430.892 49.735C93.166 578.603 0 528.531 0 528.531V0z" transform="matrix(-1 0 0 1 808 -10)" fill="url(#a)"/>
    <path d="M0 0h860.322s25.352 494.374.008 546.765c-25.345 52.39-86.846-26.559-214.417-26.559S336.609 571 215.304 571C94 571 0 471.488 0 471.488V0z" transform="translate(-52 -7)" fill="url(#b)" style="mix-blend-mode:multiply"/>
  </g>
</svg>
