<svg width="1920" height="915" xmlns="http://www.w3.org/2000/svg">
  <defs>
    <linearGradient x1=".5" y1="0" x2=".48" y2="2.102" id="a">
      <stop offset="0" stop-color="#F26A35"/>
      <stop offset="1" stop-color="#CA2061"/>
    </linearGradient>
    <linearGradient x1=".5" y1="1.031" x2=".5" y2="0" id="b">
      <stop offset="0" stop-color="#EE3048"/>
      <stop offset="1" stop-color="#F26A35"/>
    </linearGradient>
  </defs>
  <g fill-opacity=".524">
    <path d="M0 0h1919.98v915s-194-166.722-478.99-166.722c-285 0-690.997 37.446-961.994 37.446C207.998 785.724 0 716.617 0 716.617V0z" transform="matrix(-1 0 0 1 1920 0)" fill="url(#a)"/>
    <path d="M0 0h1921.68s56.63 666.762.02 750.456c-56.61 83.694-193.99-42.429-478.94-42.429S751.875 867 480.92 867C209.965 867 0 708.027 0 708.027V0z" fill="url(#b)" style="mix-blend-mode:multiply"/>
  </g>
</svg>
