<svg width="45" height="45" xmlns="http://www.w3.org/2000/svg">
  <path d="M33.99 22.74c0 6.212-5.038 11.25-11.25 11.25-6.214 0-11.25-5.038-11.25-11.25 0-6.214 5.036-11.25 11.25-11.25 6.212 0 11.25 5.036 11.25 11.25zm-21.543 0c0 5.684 4.608 10.292 10.292 10.292 5.685 0 10.293-4.608 10.293-10.293 0-5.684-4.608-10.292-10.293-10.292-5.684 0-10.292 4.608-10.292 10.292z" fill="#FF5252" fill-rule="evenodd"/>
  <path d="M45 22.5C45 34.926 34.926 45 22.5 45S0 34.926 0 22.5 10.074 0 22.5 0 45 10.074 45 22.5zm-44.043 0c0 11.898 9.645 21.543 21.543 21.543S44.043 34.398 44.043 22.5 34.398.957 22.5.957.957 10.602.957 22.5z" fill="#DCDCDC" fill-rule="evenodd"/>
  <path d="M18 23.223c-1.722-2.102-.312-5.032 1.973-5.032 1.061 0 2.02.46 2.862 1.353.6-.9 1.665-1.353 3.132-1.353 1.367 0 2.188.735 2.354 1.925.128.923-.158 2.076-.7 3.038-.64 1.14-2.083 2.823-4.34 5.077l-.342.34-.338-.343c-1.989-2.02-3.522-3.688-4.601-5.005zm1.973-4.074c-1.48 0-2.44 1.994-1.232 3.467.996 1.217 2.398 2.75 4.204 4.595 2.003-2.023 3.287-3.54 3.843-4.526.446-.793.681-1.743.585-2.438-.1-.721-.522-1.098-1.405-1.098-1.438 0-2.255.47-2.572 1.418l-.29.865-.547-.73c-.787-1.05-1.642-1.553-2.586-1.553z" fill="#FF5252" fill-rule="evenodd"/>
</svg>
