<svg width="45" height="45" xmlns="http://www.w3.org/2000/svg">
  <g fill-rule="evenodd">
    <path d="M45 22.5C45 34.926 34.926 45 22.5 45S0 34.926 0 22.5 10.074 0 22.5 0 45 10.074 45 22.5zm-44.043 0c0 11.898 9.645 21.543 21.543 21.543S44.043 34.398 44.043 22.5 34.398.957 22.5.957.957 10.602.957 22.5z" fill="#DCDCDC"/>
    <path d="M19.981 11h5.537c1.647 0 2.982 1.425 2.982 3.183v3.98h.477c1.67 0 3.023 1.409 3.023 3.147v8.543C32 31.59 30.647 33 28.977 33H16.023C14.353 33 13 31.591 13 29.853V21.31c0-1.738 1.353-3.147 3.023-3.147H17v-3.98C17 12.425 18.335 11 19.981 11zm7.667 7.163h-9.796v-3.98c0-1.255.953-2.273 2.13-2.273h5.536c1.177 0 2.13 1.018 2.13 2.273v3.98zM17 19.062h-.978c-1.192 0-2.159 1.006-2.159 2.248v8.543c0 1.241.967 2.248 2.16 2.248h12.954c1.192 0 2.159-1.007 2.159-2.248V21.31c0-1.242-.967-2.248-2.16-2.248H28.5v.124H17v-.124zm5.5 2.682c1.38 0 2.5 1.226 2.5 2.738 0 1-.495 1.903-1.268 2.383 0 .08.003.175.015.45.014.305.019.494.015.703-.02 1.165-.356 1.912-1.262 1.912-.905 0-1.245-.745-1.273-1.915a11.14 11.14 0 01.01-.706c.009-.275.012-.373.01-.457-.762-.484-1.247-1.38-1.247-2.37 0-1.512 1.12-2.738 2.5-2.738zm-.44 6.246c.018.735.151 1.027.44 1.027.287 0 .417-.288.43-1.016.002-.183-.002-.356-.015-.643a7.085 7.085 0 01-.015-.569c.01-.334.055-.524.305-.652.582-.298.962-.939.962-1.655 0-1.008-.746-1.825-1.667-1.825-.92 0-1.667.817-1.667 1.825 0 .708.37 1.341.942 1.644.242.129.29.32.303.647.005.133.003.22-.01.572-.01.292-.012.462-.008.645z" fill="#FFF"/>
  </g>
</svg>
