<svg width="127" height="39" xmlns="http://www.w3.org/2000/svg">
  <g fill="#FFF" fill-rule="evenodd">
    <path d="M22.68 29.32a4.04 4.04 0 00-1.089.832l-.152-.688c-.076-.217-.237-.326-.48-.326h-1.15V39h1.881v-3.043c.244.226.52.404.83.533.31.127.683.191 1.12.191a3.22 3.22 0 001.39-.293 3.09 3.09 0 001.06-.815c.291-.348.517-.759.674-1.232.157-.473.236-.988.236-1.543 0-.61-.07-1.149-.21-1.62a3.47 3.47 0 00-.594-1.188 2.59 2.59 0 00-.914-.736 2.678 2.678 0 00-1.17-.254c-.548 0-1.025.107-1.431.32zm-13.622-.213v7.449H7.359V32.41q0-.254.027-.573a4.46 4.46 0 01.088-.594l-2.3 4.015a.564.564 0 01-.534.311h-.198a.562.562 0 01-.534-.311l-2.331-4.036a6.82 6.82 0 01.122 1.188v4.145H0v-7.45h1.554c.132 0 .263.027.392.08a.67.67 0 01.324.319l1.844 3.13c.081.146.158.298.229.46.07.162.137.326.198.49.06-.164.125-.329.194-.493.068-.164.143-.316.225-.457l1.828-3.13c.091-.164.2-.272.328-.322.126-.051.256-.076.388-.076h1.554zm8.892.03v7.435h-1.882v-4.34c0-.111.006-.232.019-.366.013-.133.03-.266.05-.402a3.494 3.494 0 01-.336.587c-.01.01-.06.076-.152.199l-.354.475-.492.655-.556.743-1.5 2.014c-.072.102-.165.201-.278.298a.588.588 0 01-.393.145h-1.15v-7.435h1.881v4.34c0 .112-.006.234-.019.367a7.387 7.387 0 01-.05.402 3.739 3.739 0 01.48-.783c.092-.12.21-.278.355-.471a251.718 251.718 0 001.047-1.406c.442-.594.945-1.266 1.509-2.014.071-.106.165-.207.281-.3a.613.613 0 01.397-.142h1.143zm4.437 6.03a1.84 1.84 0 01-.697-.522v-3.333c.244-.285.503-.506.777-.663.275-.157.607-.236.998-.236.249 0 .471.044.667.13.195.088.361.225.499.414.137.188.242.433.316.735.073.302.11.67.11 1.106 0 .43-.043.802-.129 1.12-.086.315-.21.578-.37.785-.16.208-.354.363-.582.464a1.884 1.884 0 01-.77.152c-.294 0-.567-.051-.819-.152zM102.794 10.723a.365.365 0 01-.062.067.133.133 0 01-.085.024.207.207 0 01-.116-.04 3.135 3.135 0 00-.143-.09.92.92 0 00-.495-.129.9.9 0 00-.4.085.781.781 0 00-.287.239c-.077.104-.135.23-.173.378a2.01 2.01 0 00-.057.501c0 .192.02.363.062.512.042.15.1.276.178.379a.772.772 0 00.651.314q.203 0 .33-.05c.085-.033.155-.07.212-.11.056-.04.105-.077.145-.11a.197.197 0 01.13-.051c.056 0 .1.022.13.067l.199.265c-.081.1-.17.185-.268.254a1.53 1.53 0 01-.65.263 2.224 2.224 0 01-.355.028c-.207 0-.4-.04-.58-.119a1.35 1.35 0 01-.47-.345 1.647 1.647 0 01-.316-.552q-.116-.327-.116-.745c0-.252.035-.486.104-.701.07-.216.172-.402.306-.558.133-.156.3-.278.497-.367.198-.088.427-.132.686-.132.241 0 .454.04.638.12.184.081.348.195.491.342l-.186.261zm-24.552 1.6c-.05-.142-.08-.31-.088-.505h2.138c.063 0 .107-.019.13-.056.025-.038.036-.113.036-.225 0-.243-.035-.46-.106-.651a1.389 1.389 0 00-.295-.484 1.247 1.247 0 00-.45-.3 1.551 1.551 0 00-.568-.102 1.59 1.59 0 00-.662.132 1.47 1.47 0 00-.495.36c-.137.152-.241.33-.314.536a1.96 1.96 0 00-.11.663c0 .297.042.559.123.787.082.228.195.418.34.572.144.154.315.271.512.35.197.08.41.12.641.12.118 0 .239-.01.363-.03.124-.018.244-.05.362-.093.117-.044.228-.1.333-.17.105-.068.198-.153.28-.253l-.198-.265a.148.148 0 00-.13-.067.277.277 0 00-.144.049 3.318 3.318 0 01-.19.107 1.692 1.692 0 01-.261.107c-.1.032-.219.048-.356.048-.143 0-.274-.022-.39-.068a.783.783 0 01-.3-.21 1.049 1.049 0 01-.2-.353zm33.179 0c-.05-.142-.08-.31-.088-.505h2.138c.062 0 .106-.019.13-.056.024-.038.036-.113.036-.225 0-.243-.035-.46-.106-.651a1.39 1.39 0 00-.295-.484 1.247 1.247 0 00-.45-.3 1.55 1.55 0 00-.569-.102c-.246 0-.466.044-.66.132-.195.088-.36.208-.497.36-.136.152-.24.33-.313.536-.073.205-.11.426-.11.663 0 .297.041.559.123.787.082.228.195.418.34.572.144.154.315.271.512.35.196.08.41.12.641.12.118 0 .238-.01.362-.03.125-.018.245-.05.363-.093.117-.044.228-.1.333-.17.104-.068.197-.153.28-.253l-.199-.265a.148.148 0 00-.13-.067.276.276 0 00-.144.049 3.314 3.314 0 01-.19.107 1.694 1.694 0 01-.26.107c-.1.032-.22.048-.356.048q-.216 0-.39-.068a.78.78 0 01-.3-.21 1.048 1.048 0 01-.201-.353zm-34.634-2.28v3.426h-.63v-2.066a3.827 3.827 0 01.045-.495l-1.06 1.955a.267.267 0 01-.085.096.208.208 0 01-.118.035h-.075a.197.197 0 01-.116-.035.268.268 0 01-.083-.096l-1.08-1.966c.012.079.024.164.034.257.01.092.014.175.014.249v2.066H73v-3.425h.575c.047 0 .095.01.142.033a.29.29 0 01.122.13l.904 1.588c.03.058.058.12.084.187l.073.201a6.77 6.77 0 01.075-.2c.026-.068.055-.13.085-.188l.89-1.588a.26.26 0 01.122-.131.35.35 0 01.143-.032h.572zm7.85 4.367v-1.484h-.61v-2.872h-2.185c-.021.43-.05.801-.088 1.111-.037.31-.08.573-.129.787a2.645 2.645 0 01-.164.518c-.062.13-.126.231-.193.303a.512.512 0 01-.212.142.748.748 0 01-.226.035h-.1v1.678h.443c.065 0 .114-.022.145-.064a.23.23 0 00.048-.14v-.955H84v1.159h.434c.059 0 .107-.02.145-.059a.217.217 0 00.057-.159zm3.472-4.356v3.415h-.702v-2.14a2.123 2.123 0 01.027-.324c-.022.049-.043.094-.064.135a.802.802 0 01-.067.112l-1.446 2.04a.55.55 0 01-.104.122.212.212 0 01-.147.058h-.425v-3.418h.702v2.14a3.042 3.042 0 01-.03.331 1.5 1.5 0 01.134-.255l1.447-2.035a.513.513 0 01.104-.125.218.218 0 01.147-.056h.424zm7.778 0v3.415h-.702v-2.14a2.071 2.071 0 01.027-.324c-.022.049-.043.094-.064.135a.792.792 0 01-.067.112l-1.446 2.04a.547.547 0 01-.105.122.212.212 0 01-.146.058h-.425v-3.418h.702v2.14a3.042 3.042 0 01-.03.331 1.5 1.5 0 01.134-.255l1.447-2.035a.5.5 0 01.104-.125.218.218 0 01.147-.056h.424zm3.695 0v3.415h-.698v-1.55h-1.44v1.55h-.701v-3.415h.701v1.322h1.44v-1.322h.698zm10.386 0v3.415h-.702v-2.14a2.337 2.337 0 01.026-.325c-.021.05-.042.095-.063.136a.811.811 0 01-.067.112l-1.446 2.04a.56.56 0 01-.104.122.213.213 0 01-.147.058h-.425v-3.418h.702v2.14a3.04 3.04 0 01-.03.331c.044-.103.089-.188.135-.255l1.445-2.035a.51.51 0 01.105-.125.219.219 0 01.147-.056h.424zm-17.554 2.873v1.483c0 .067-.018.12-.055.159a.189.189 0 01-.144.058h-.434V13.47h-2.817v-3.415h.702v2.873h1.44v-2.873h.698v2.873h.61zm13.164-2.68a.4.4 0 01.33-.193h.548l-.82 1.282a1 1 0 01-.162.211.582.582 0 01-.21.124c.108.031.196.079.267.142.07.064.134.146.19.246l.827 1.41h-.484a.547.547 0 01-.288-.064.518.518 0 01-.175-.187l-.565-.998a.447.447 0 00-.179-.187.522.522 0 00-.251-.06h-.33v1.5h-.702v-3.42h.702v1.437h.284a.443.443 0 00.228-.054.443.443 0 00.157-.163l.633-1.025zm-25.8.792c.034.104.05.217.05.337h-1.654q.059-.405.277-.63c.146-.149.346-.224.6-.224a.81.81 0 01.335.065.682.682 0 01.244.182.8.8 0 01.148.27zm33.179 0c.033.104.05.217.05.337h-1.655q.06-.405.277-.63c.146-.149.347-.224.601-.224a.81.81 0 01.335.065.682.682 0 01.243.182.793.793 0 01.149.27zm-29.61-.426v2.337h-1.472c.06-.094.12-.21.176-.346.056-.138.108-.302.155-.493.047-.19.088-.41.124-.657.036-.248.064-.529.084-.841h.933zm.115 7.239a2.293 2.293 0 00-.735-.15v-1.357h-.656v1.356c-.27.014-.515.064-.734.153a1.588 1.588 0 00-.92.902 1.85 1.85 0 00-.128.7q0 .388.127.703a1.584 1.584 0 00.92.903c.22.088.465.138.735.152v1.112h.656v-1.112c.27-.014.514-.064.735-.152a1.583 1.583 0 00.92-.903q.127-.315.127-.703c0-.26-.042-.494-.127-.703a1.591 1.591 0 00-.36-.543 1.667 1.667 0 00-.56-.358zm15.027-.164q-.78 0-1.345.539l.127.234c.022.039.05.07.083.096a.198.198 0 00.123.038.297.297 0 00.166-.052c.052-.034.113-.072.18-.112a1.51 1.51 0 01.238-.112.958.958 0 01.34-.052c.198 0 .348.06.45.18q.153.182.153.55v.228a4.417 4.417 0 00-.954.11 2.17 2.17 0 00-.624.247.949.949 0 00-.34.336.79.79 0 00-.102.385c0 .154.024.288.074.402.048.114.115.209.2.286a.827.827 0 00.302.173c.116.038.242.057.377.057.122 0 .234-.011.335-.032.1-.021.195-.053.284-.096.088-.042.173-.094.256-.155q.124-.092.251-.21l.069.278c.024.065.053.108.088.13a.296.296 0 00.154.031h.313v-2.17c0-.194-.027-.371-.08-.53a1.203 1.203 0 00-.232-.414 1.025 1.025 0 00-.376-.27q-.223-.095-.51-.095zm-8.449.154a1.763 1.763 0 00-.475.405l-.059-.358c-.026-.092-.087-.137-.183-.137H88.9v4.55h.702v-1.45q.166.17.37.268c.136.065.302.097.498.097a1.29 1.29 0 001.048-.51c.124-.16.22-.349.285-.566.067-.218.1-.453.1-.705q0-.423-.09-.748c-.06-.219-.144-.4-.253-.548a1.098 1.098 0 00-.391-.336 1.109 1.109 0 00-.51-.116q-.352 0-.618.154zm-2.761-.02a1.728 1.728 0 00-.668-.124c-.248 0-.471.041-.67.124-.2.082-.37.2-.512.352-.141.151-.25.336-.326.552-.076.217-.114.46-.114.73 0 .27.038.513.114.73q.114.325.326.554c.142.153.312.27.511.353.2.083.423.124.671.124.246 0 .468-.041.668-.124.199-.083.368-.2.509-.353.14-.153.248-.338.325-.554.076-.217.114-.46.114-.73 0-.27-.038-.513-.114-.73a1.565 1.565 0 00-.325-.552c-.14-.153-.31-.27-.51-.352zm23.112 0a1.724 1.724 0 00-.668-.124c-.248 0-.471.041-.67.124-.2.082-.37.2-.511.352-.142.151-.25.336-.327.552-.076.217-.114.46-.114.73 0 .27.038.513.114.73q.115.325.327.554c.141.153.312.27.51.353.2.083.423.124.671.124.246 0 .469-.041.668-.124.2-.083.368-.2.509-.353.14-.153.249-.338.325-.554.076-.217.114-.46.114-.73 0-.27-.038-.513-.114-.73a1.566 1.566 0 00-.325-.552c-.14-.153-.31-.27-.51-.352zm14.392 2.198a1.77 1.77 0 01-.088-.504h2.138c.063 0 .107-.019.131-.057.024-.038.036-.112.036-.224 0-.243-.036-.46-.106-.651a1.39 1.39 0 00-.296-.484 1.247 1.247 0 00-.45-.3 1.55 1.55 0 00-.568-.102c-.246 0-.466.044-.661.132-.195.088-.36.208-.496.36s-.24.33-.314.536c-.072.205-.109.426-.109.663 0 .297.04.559.122.787.082.227.195.418.34.572.145.154.316.271.512.35.197.08.411.12.642.12.117 0 .238-.01.362-.03.124-.018.245-.05.363-.093.117-.044.228-.1.332-.17.105-.068.198-.153.281-.253l-.2-.265a.148.148 0 00-.13-.067.276.276 0 00-.143.049 3.32 3.32 0 01-.19.107 1.657 1.657 0 01-.26.107c-.1.032-.22.048-.356.048q-.216 0-.39-.068a.778.778 0 01-.3-.21 1.043 1.043 0 01-.202-.353zm-28.416-2.278v3.425h-.63v-2.066a3.8 3.8 0 01.046-.495l-1.06 1.955a.26.26 0 01-.086.095.204.204 0 01-.117.036h-.075a.197.197 0 01-.116-.036.27.27 0 01-.084-.095l-1.08-1.966c.013.079.024.164.034.256.01.093.015.176.015.25v2.066h-.633v-3.425h.574c.048 0 .095.01.142.033a.289.289 0 01.123.13l.904 1.588c.03.058.058.12.083.187l.074.201c.024-.067.049-.134.075-.2.026-.068.054-.13.085-.188l.89-1.588a.26.26 0 01.121-.132.349.349 0 01.144-.031h.571zm24.937 1.394a1.743 1.743 0 00-.584-.085h-.647v-1.3h-.665v3.416h1.322c.198 0 .373-.026.527-.079.153-.052.282-.126.388-.222a.946.946 0 00.24-.34 1.195 1.195 0 00.016-.827.85.85 0 00-.212-.333 1.04 1.04 0 00-.385-.23zm1.325 2.031h.702v-3.416h-.702v3.416zm-46.701-3.415v3.415h-.702v-2.14a2.316 2.316 0 01.026-.325c-.021.05-.043.095-.063.136a.8.8 0 01-.067.112l-1.446 2.04a.557.557 0 01-.104.122.214.214 0 01-.147.058H73v-3.418h.702v2.14a3.03 3.03 0 01-.03.331c.044-.103.089-.188.134-.255l1.446-2.036a.51.51 0 01.105-.124.217.217 0 01.147-.056h.424zm3.695 0v3.415h-.699v-1.55h-1.44v1.55h-.7v-3.415h.7v1.322h1.44v-1.322h.699zm27.806 0v3.415h-.702v-2.14a2.123 2.123 0 01.026-.324c-.021.049-.043.094-.064.135a.801.801 0 01-.066.112l-1.446 2.04q-.04.063-.105.122a.212.212 0 01-.147.058h-.424v-3.418h.702v2.14a3.042 3.042 0 01-.03.331c.044-.103.088-.188.134-.255l1.446-2.036a.5.5 0 01.105-.124.215.215 0 01.146-.056h.425zm7.422 0v3.415h-.698v-1.55h-1.44v1.55h-.702v-3.415h.702v1.322h1.44v-1.322h.698zm3.698 0v3.415h-.698v-1.55h-1.44v1.55h-.702v-3.415h.702v1.322h1.44v-1.322h.698zm-14.593 2.872v1.484c0 .067-.019.12-.056.159a.189.189 0 01-.143.058h-.434v-1.158h-2.817v-3.415h.702v2.872h1.439v-2.872h.699v2.872h.61zm22.363-1.887c.034.104.05.217.05.337h-1.654q.059-.405.277-.63c.146-.149.346-.224.6-.224a.81.81 0 01.335.065.682.682 0 01.244.182.793.793 0 01.148.27zm-45.328.722q0-.549.285-.866c.19-.21.463-.328.818-.353v2.435c-.355-.025-.627-.142-.818-.352-.19-.21-.285-.498-.285-.864zm2.82 0c0 .366-.096.655-.286.864-.19.21-.463.327-.818.352V18.24c.355.025.628.143.818.353q.286.317.286.866zm3.47.886c-.146.206-.37.31-.67.31-.305 0-.53-.104-.68-.31q-.22-.31-.22-.886c0-.384.073-.68.22-.889.15-.208.375-.313.68-.313.3 0 .524.105.67.313.148.21.221.505.221.89q0 .575-.22.885zm23.113 0c-.147.206-.37.31-.67.31-.305 0-.532-.104-.68-.31q-.222-.31-.222-.886c0-.384.074-.68.222-.889.148-.208.375-.313.68-.313.3 0 .523.105.67.313.147.21.22.505.22.89 0 .383-.073.678-.22.885zm-20.471.238a.849.849 0 01-.322-.273v-1.584a1.32 1.32 0 01.36-.34c.13-.08.284-.12.462-.12.118 0 .223.023.317.065a.59.59 0 01.239.204c.065.094.115.215.15.363.034.149.051.328.051.538 0 .406-.076.712-.23.917a.755.755 0 01-.64.308.93.93 0 01-.387-.078zm31.268-.094a.547.547 0 01-.192.114q-.116.042-.27.042h-.655V19.57h.65c.112 0 .208.014.286.042a.513.513 0 01.191.114c.05.047.085.103.108.167a.63.63 0 01-.003.424.445.445 0 01-.115.172zm-22.82-.753c.172-.033.383-.053.633-.062v.632a1.478 1.478 0 01-.383.307.984.984 0 01-.669.08.41.41 0 01-.157-.08.368.368 0 01-.104-.14.51.51 0 01-.038-.207c0-.082.023-.158.07-.228a.55.55 0 01.23-.179 1.74 1.74 0 01.418-.123zm-24.23 5.804a1.769 1.769 0 00-.475.405l-.059-.358c-.026-.092-.086-.138-.182-.138H73V30h.702v-1.45c.11.114.234.203.37.268.136.065.302.097.498.097a1.29 1.29 0 001.048-.51c.124-.16.22-.349.286-.566.066-.218.1-.453.1-.705q0-.423-.09-.748c-.06-.219-.145-.4-.254-.548a1.104 1.104 0 00-.391-.337 1.11 1.11 0 00-.51-.115q-.352 0-.618.154zm3.138 2.178c-.05-.142-.08-.31-.088-.504h2.138c.063 0 .107-.019.13-.057.025-.038.037-.113.037-.224 0-.244-.036-.46-.107-.652a1.39 1.39 0 00-.295-.484 1.248 1.248 0 00-.45-.3 1.552 1.552 0 00-.568-.101c-.246 0-.467.044-.661.132-.195.088-.36.208-.496.36a1.58 1.58 0 00-.314.536c-.073.205-.11.426-.11.663 0 .297.041.559.123.787.082.227.195.418.34.572.145.154.315.271.512.35.197.08.411.119.642.119.117 0 .238-.01.362-.028.124-.02.245-.05.362-.094.118-.044.229-.1.333-.17.105-.069.198-.154.281-.254l-.2-.264a.149.149 0 00-.13-.067.282.282 0 00-.144.048 2.88 2.88 0 01-.189.107c-.074.04-.16.075-.26.107-.1.033-.22.05-.356.05-.144 0-.274-.024-.39-.07a.78.78 0 01-.3-.209 1.044 1.044 0 01-.202-.353zm8.868 0c-.05-.142-.08-.31-.087-.504h2.137c.063 0 .107-.019.13-.057.025-.038.037-.113.037-.224 0-.244-.036-.46-.106-.652-.071-.19-.17-.352-.296-.484a1.247 1.247 0 00-.45-.3 1.552 1.552 0 00-.568-.101c-.246 0-.466.044-.661.132-.195.088-.36.208-.496.36s-.24.33-.313.536c-.074.205-.11.426-.11.663 0 .297.04.559.122.787.082.227.195.418.34.572.145.154.315.271.513.35.196.08.41.119.64.119.118 0 .24-.01.363-.028.124-.02.245-.05.362-.094.118-.044.229-.1.333-.17.105-.069.198-.154.281-.254l-.199-.264a.149.149 0 00-.13-.067.281.281 0 00-.144.048 2.874 2.874 0 01-.19.107c-.073.04-.16.075-.26.107-.1.033-.22.05-.356.05-.144 0-.274-.024-.39-.07a.78.78 0 01-.3-.209 1.044 1.044 0 01-.202-.353zm-1.455-2.269v3.416h-4.544v-3.416h.702v2.873h1.22V25.45h.703v2.873h1.22V25.45h.699zm7.164 0v3.416h-.698v-1.55h-1.44v1.55h-.701v-3.416h.701v1.323h1.44v-1.323h.698zm3.787 0v3.416h-.702v-2.14a2.292 2.292 0 01.026-.325c-.022.05-.043.095-.064.136a.836.836 0 01-.067.112l-1.446 2.04a.574.574 0 01-.104.122.216.216 0 01-.147.058h-.424V25.45h.701v2.14a3 3 0 01-.03.331c.045-.102.09-.187.135-.254l1.446-2.036a.504.504 0 01.105-.124.217.217 0 01.146-.057h.425zm3.267 3.416v-3.416h-1.182c-.228 0-.424.029-.586.086a1.156 1.156 0 00-.396.224.843.843 0 00-.224.317.972.972 0 00-.07.361c0 .094.016.188.047.283a.771.771 0 00.152.263c.07.08.161.15.275.21.112.061.25.104.41.128a.637.637 0 00-.345.301l-.898 1.243h.483c.124 0 .217-.02.279-.062a.515.515 0 00.162-.19l.623-.913c.022-.036.044-.068.067-.098a.365.365 0 01.078-.073.355.355 0 01.106-.047.612.612 0 01.157-.017h.192v1.4h.67zm-20.095-2.43c.034.104.05.216.05.337h-1.654c.04-.27.131-.48.277-.63.146-.149.346-.224.6-.224a.81.81 0 01.335.065.685.685 0 01.244.181.792.792 0 01.148.271zm8.868 0c.034.104.05.216.05.337H86.08c.04-.27.131-.48.277-.63.146-.149.346-.224.601-.224a.81.81 0 01.335.065.684.684 0 01.243.181.792.792 0 01.148.271zm10.558-.51v1.085h-.44q-.298 0-.473-.144a.484.484 0 01-.174-.395.65.65 0 01.03-.191.479.479 0 01.097-.176q.069-.079.183-.129a.708.708 0 01.284-.05h.493zM74.023 28.28a.846.846 0 01-.32-.272v-1.584c.11-.148.23-.26.36-.34.13-.08.283-.12.461-.12.118 0 .224.023.317.065.094.042.173.11.238.204.066.094.116.215.15.363.036.149.053.328.053.538 0 .406-.077.712-.23.917a.754.754 0 01-.642.308.926.926 0 01-.387-.079zM65 18.003C65 8.06 56.941 0 47 0S29 8.06 29 18.003c0 8.631 6.073 15.842 14.177 17.596v-10.88a.208.208 0 00-.06-.146l-1.85-1.852a.208.208 0 00-.148-.06h-1.894a.207.207 0 00-.194.135 1.732 1.732 0 01-1.62 1.116h-.017a1.74 1.74 0 01-1.249-.56 1.738 1.738 0 01-.47-1.283c.028-.47.24-.898.594-1.206.35-.304.799-.455 1.261-.422a1.727 1.727 0 011.501 1.112.206.206 0 00.194.134h2.24c.092 0 .18.037.245.102l2.34 2.34a.346.346 0 01.101.246V35.78a18.05 18.05 0 002.362.219V21.788a.208.208 0 00-.06-.148l-5.186-5.186a.21.21 0 00-.147-.061h-3.557a.206.206 0 00-.194.135 1.74 1.74 0 01-1.62 1.116h-.015a1.742 1.742 0 01-1.251-.56 1.74 1.74 0 01-.47-1.283c.028-.469.24-.898.594-1.206.35-.304.798-.455 1.26-.422a1.727 1.727 0 011.502 1.113.206.206 0 00.194.134h2.904a.209.209 0 00.209-.209v-2.077a.209.209 0 00-.137-.194 1.73 1.73 0 01-1.11-1.742c.032-.463.243-.886.593-1.19.35-.305.799-.455 1.261-.423.463.033.886.243 1.19.593.304.35.455.798.423 1.262a1.727 1.727 0 01-1.113 1.502.206.206 0 00-.134.194v2.237c0 .055.022.109.06.148l4.686 4.685c.03.031.065.02.076.015a.068.068 0 00.042-.064V9.797a.208.208 0 00-.136-.194 1.729 1.729 0 01-1.11-1.742c.032-.463.243-.886.593-1.19.35-.304.799-.455 1.26-.422.464.032.887.243 1.191.593.305.35.454.798.422 1.261a1.728 1.728 0 01-1.112 1.502.206.206 0 00-.134.194V22.66c0 .043.032.06.043.064.01.004.045.016.075-.015l4.685-4.686a.209.209 0 00.061-.147v-3.909a.209.209 0 00-.136-.194 1.73 1.73 0 01-1.11-1.742c.032-.463.243-.886.593-1.19.35-.305.8-.456 1.26-.423.464.033.887.243 1.19.594.305.35.456.798.423 1.26a1.726 1.726 0 01-1.113 1.503.207.207 0 00-.133.194v3.747c0 .115.093.209.208.209h2.91a.207.207 0 00.194-.135 1.733 1.733 0 011.743-1.113c.463.033.886.244 1.19.594.304.35.454.798.422 1.261a1.726 1.726 0 01-.593 1.19c-.348.303-.8.456-1.261.423a1.746 1.746 0 01-1.5-1.111.21.21 0 00-.194-.136h-3.566a.205.205 0 00-.147.061l-5.183 5.184a.208.208 0 00-.061.147V36c.801-.021 1.59-.096 2.363-.219v-9.738c0-.093.036-.18.101-.246l2.34-2.34a.347.347 0 01.246-.102h2.386c.093-.32.275-.604.528-.824.35-.304.799-.455 1.26-.422.464.032.887.243 1.191.593.304.35.454.798.422 1.261a1.737 1.737 0 01-3.4.366h-2.042a.207.207 0 00-.148.061l-1.85 1.851a.208.208 0 00-.062.148v9.21C58.927 33.845 65 26.634 65 18.003zM47.577 7.481a.762.762 0 01-.63 1.264.76.76 0 01-.524-.261.76.76 0 01-.185-.555.76.76 0 01.76-.711.757.757 0 01.578.263zm-5.838 3.336c.134.154.2.35.185.555a.76.76 0 01-.815.71.76.76 0 01-.523-.262.759.759 0 01-.186-.554.76.76 0 01.815-.71c.204.014.39.107.524.261zm11.6 1.913a.759.759 0 00.261-.524.758.758 0 00-.185-.555.76.76 0 00-1.079-.075.76.76 0 00-.075 1.078c.135.155.32.247.524.261.203.015.4-.05.555-.185zm-16.83 3.23a.76.76 0 00-.763-.818.764.764 0 10.763.817zm21.697 3.214a.76.76 0 00.816-.71.76.76 0 00-.763-.818.764.764 0 00-.053 1.528zM37.407 21.41a.758.758 0 01.578.263c.134.155.2.351.185.555a.76.76 0 01-.26.524.759.759 0 01-.555.186.758.758 0 01-.523-.262.76.76 0 01.575-1.266zm19.684 3.01a.76.76 0 01-1.078-.075.761.761 0 01.075-1.079.765.765 0 111.004 1.154z"/>
  </g>
</svg>
