<?xml version="1.0" encoding="utf-8"?>
<svg width="190" height="59" viewBox="0 0 190 59" xmlns="http://www.w3.org/2000/svg">
  <g fill="#FFF" fill-rule="evenodd">
    <path d="M34.441 43.511a6.181 6.181 0 00-1.655 1.333l-.231-1.1c-.116-.35-.359-.523-.729-.523H30.08V59h2.857v-4.869c.37.363.79.647 1.261.852.47.204 1.036.307 1.7.307.779 0 1.483-.157 2.112-.47a4.732 4.732 0 001.607-1.303 6.058 6.058 0 001.024-1.972c.24-.757.359-1.58.359-2.469 0-.974-.106-1.837-.318-2.592-.212-.753-.513-1.386-.902-1.9a3.978 3.978 0 00-1.388-1.178A3.895 3.895 0 0036.615 43c-.833 0-1.558.172-2.174.511zm-20.686-.34v11.918h-2.58v-6.632q0-.406.04-.916c.028-.34.072-.656.134-.95l-3.494 6.424c-.17.332-.44.498-.81.498h-.3c-.371 0-.64-.166-.81-.498l-3.54-6.458a11.463 11.463 0 01.184 1.9v6.632H0V43.171h2.36c.2 0 .399.042.596.127.196.086.36.255.491.51l2.8 5.008c.123.233.24.477.347.736.108.26.208.521.3.783.093-.262.192-.525.296-.788a6.48 6.48 0 01.341-.73l2.777-5.01c.139-.26.304-.433.497-.514.192-.082.39-.122.59-.122h2.36zm13.502.05v11.895H24.4V48.17c0-.178.009-.372.028-.586.02-.212.045-.425.076-.642a5.664 5.664 0 01-.51.939 6.29 6.29 0 00-.23.318l-.539.76c-.22.31-.468.66-.746 1.048l-.845 1.19c-.67.95-1.43 2.025-2.278 3.222-.108.162-.25.321-.422.476a.867.867 0 01-.596.232H16.59V43.232h2.858v6.945c0 .178-.01.374-.029.586-.02.212-.044.427-.075.644a6.059 6.059 0 01.729-1.253l.537-.754a401.897 401.897 0 001.591-2.25c.671-.95 1.435-2.025 2.29-3.222.11-.17.252-.33.428-.48a.902.902 0 01.602-.227h1.736zm6.738 9.646c-.382-.162-.734-.441-1.058-.835V46.7c.37-.457.763-.809 1.18-1.061.417-.25.921-.377 1.516-.377.377 0 .714.07 1.012.208.296.14.549.36.758.662.208.301.367.693.48 1.177.11.483.167 1.071.167 1.768 0 .688-.066 1.285-.196 1.792-.132.505-.319.925-.562 1.257-.243.332-.538.58-.885.742a2.735 2.735 0 01-1.168.244 3.16 3.16 0 01-1.243-.244zM153.691 16.085a.547.547 0 01-.093.1.2.2 0 01-.127.035.311.311 0 01-.174-.06 4.755 4.755 0 00-.215-.133 1.38 1.38 0 00-.742-.193 1.35 1.35 0 00-.6.126 1.171 1.171 0 00-.43.358 1.608 1.608 0 00-.26.568 3.012 3.012 0 00-.086.751c0 .288.03.544.093.768a1.7 1.7 0 00.266.568c.117.154.257.271.422.352.165.08.35.12.556.12.202 0 .367-.025.494-.075a1.52 1.52 0 00.319-.166c.084-.06.157-.116.217-.166a.295.295 0 01.194-.075c.084 0 .15.034.196.1l.298.397a2 2 0 01-.401.382 2.297 2.297 0 01-.975.394 3.336 3.336 0 01-.533.043c-.31 0-.6-.06-.87-.178a2.029 2.029 0 01-.705-.518c-.2-.226-.359-.502-.474-.829a3.327 3.327 0 01-.174-1.117c0-.378.052-.73.156-1.052.105-.323.258-.602.458-.837.201-.234.45-.417.747-.55a2.51 2.51 0 011.028-.198c.362 0 .681.06.957.181.276.12.522.291.737.512l-.279.392zm-36.828 2.398a2.613 2.613 0 01-.132-.756h3.207c.094 0 .16-.028.196-.085.036-.057.054-.17.054-.337 0-.365-.053-.69-.16-.976a2.083 2.083 0 00-.442-.727 1.87 1.87 0 00-.676-.449 2.327 2.327 0 00-.852-.153c-.369 0-.7.066-.992.199-.292.132-.54.311-.743.54a2.367 2.367 0 00-.47.803 2.94 2.94 0 00-.165.995c0 .445.062.838.184 1.18.123.341.292.628.51.859.216.23.472.406.768.525.295.118.616.178.962.178.176 0 .357-.014.543-.043.186-.028.367-.075.544-.14.176-.066.342-.15.5-.254.156-.104.296-.231.42-.382l-.299-.396a.223.223 0 00-.195-.101.415.415 0 00-.216.073 5 5 0 01-.284.16c-.11.059-.241.113-.392.161-.15.049-.328.073-.533.073-.215 0-.41-.034-.585-.103a1.174 1.174 0 01-.45-.314 1.574 1.574 0 01-.302-.53zm49.768 0a2.635 2.635 0 01-.132-.756h3.207c.094 0 .16-.028.196-.085.036-.057.054-.17.054-.337 0-.365-.053-.69-.16-.976q-.159-.43-.443-.727a1.87 1.87 0 00-.675-.449 2.327 2.327 0 00-.852-.153c-.37 0-.7.066-.992.199a2.2 2.2 0 00-.744.54 2.365 2.365 0 00-.47.803c-.11.308-.164.64-.164.995 0 .445.061.838.184 1.18.122.341.292.628.509.859.217.23.473.406.768.525.295.118.617.178.963.178.176 0 .357-.014.543-.043.186-.028.368-.075.544-.14.175-.066.342-.15.499-.254.157-.104.297-.231.421-.382l-.299-.396a.223.223 0 00-.195-.101.415.415 0 00-.216.073 4.959 4.959 0 01-.284.16 2.54 2.54 0 01-.392.161c-.15.049-.328.073-.533.073q-.323 0-.585-.103a1.172 1.172 0 01-.45-.314 1.575 1.575 0 01-.302-.53zm-51.951-3.417v5.138h-.945v-3.1c0-.107.006-.228.02-.364.012-.135.029-.261.048-.379l-1.591 2.933a.4.4 0 01-.127.144.312.312 0 01-.177.052h-.112a.296.296 0 01-.174-.052.401.401 0 01-.125-.144l-1.62-2.948c.019.117.037.245.051.385.015.139.022.263.022.373v3.1H109v-5.138h.862c.072 0 .143.016.213.05.07.033.131.099.184.195l1.356 2.381c.046.087.087.181.125.282l.11.301c.036-.1.073-.201.112-.301.04-.101.082-.195.128-.282l1.336-2.38a.39.39 0 01.182-.199.525.525 0 01.215-.047h.857zm11.775 6.55V19.39h-.916v-4.31h-3.276a24.618 24.618 0 01-.132 1.668c-.055.465-.12.859-.193 1.18-.073.321-.156.58-.247.777a1.735 1.735 0 01-.289.454.769.769 0 01-.318.214 1.121 1.121 0 01-.339.052h-.15v2.517h.665c.098 0 .17-.032.218-.096a.346.346 0 00.07-.211v-1.431h3.952v1.738h.651c.088 0 .16-.03.218-.088a.326.326 0 00.086-.239zm5.21-6.535v5.123h-1.054v-3.21a3.16 3.16 0 01.04-.487 4.077 4.077 0 01-.096.203c-.03.062-.064.118-.1.168l-2.17 3.06a.822.822 0 01-.156.183.318.318 0 01-.22.087h-.637v-5.127h1.053v3.21a4.477 4.477 0 01-.044.497c.065-.155.132-.282.2-.383l2.17-3.053a.763.763 0 01.156-.186.326.326 0 01.22-.085h.637zm11.666 0v5.123h-1.053v-3.21a3.104 3.104 0 01.04-.487 3.989 3.989 0 01-.096.203c-.03.062-.064.118-.1.168l-2.17 3.06a.828.828 0 01-.156.183.319.319 0 01-.22.087h-.637v-5.127h1.053v3.21c0 .07-.004.148-.013.235a4.656 4.656 0 01-.031.261c.065-.154.132-.28.2-.382l2.17-3.053a.755.755 0 01.156-.186.326.326 0 01.22-.085h.637zm5.543 0v5.123h-1.048v-2.326h-2.16v2.326h-1.052V15.08h1.052v1.984h2.16V15.08h1.048zm15.578 0v5.123H163.4v-3.21a3.535 3.535 0 01.04-.487 3.989 3.989 0 01-.096.203c-.03.062-.064.118-.1.168l-2.17 3.06a.833.833 0 01-.156.183.32.32 0 01-.22.087h-.637v-5.127h1.053v3.21a4.561 4.561 0 01-.044.497c.066-.155.132-.282.2-.383l2.17-3.053a.768.768 0 01.157-.186.328.328 0 01.22-.085h.636zm-26.33 4.309v2.225c0 .1-.028.18-.083.238a.283.283 0 01-.216.088h-.65v-1.738h-4.227v-5.122H134v4.309h2.159v-4.31h1.047v4.31h.916zm19.745-4.018a.598.598 0 01.495-.291h.822l-1.229 1.923c-.078.13-.16.236-.244.317a.873.873 0 01-.314.185c.16.047.293.119.4.214.105.096.201.218.286.37l1.238 2.114h-.724c-.186 0-.33-.032-.434-.096a.777.777 0 01-.261-.281l-.848-1.497a.672.672 0 00-.269-.281.783.783 0 00-.376-.09h-.496v2.25h-1.052V15.08h1.052v2.154h.427a.664.664 0 00.343-.08.665.665 0 00.234-.246l.95-1.537zm-38.7 1.187c.05.156.076.324.076.505h-2.483q.089-.607.416-.944c.22-.224.52-.337.901-.337.19 0 .357.033.502.098.145.066.268.156.365.272a1.2 1.2 0 01.223.406zm49.768 0c.05.156.076.324.076.505h-2.483c.06-.405.198-.72.416-.944.219-.224.52-.337.901-.337.19 0 .357.033.502.098.145.066.267.156.365.272.098.115.172.25.223.406zm-44.414-.64v3.506h-2.209c.092-.14.18-.314.265-.52.084-.206.162-.452.232-.738.07-.287.132-.615.186-.987.054-.372.096-.792.125-1.26h1.4zm.171 10.859a3.438 3.438 0 00-1.101-.226v-2.034h-.985v2.034c-.405.02-.771.096-1.101.228a2.38 2.38 0 00-1.38 1.354 2.775 2.775 0 00-.192 1.05q0 .582.191 1.055c.127.314.307.586.538.813.232.228.513.408.843.54.33.133.696.209 1.101.229v1.667h.985v-1.667c.404-.02.771-.096 1.101-.229.33-.132.61-.312.842-.54.232-.227.411-.499.539-.813a2.79 2.79 0 00.19-1.055c0-.389-.063-.74-.19-1.055a2.387 2.387 0 00-.539-.814 2.498 2.498 0 00-.842-.537zm22.541-.246q-1.17 0-2.017.808l.191.352a.462.462 0 00.124.143.297.297 0 00.185.058.445.445 0 00.25-.078c.077-.052.167-.108.268-.168.102-.06.22-.117.358-.168a1.44 1.44 0 01.51-.078c.296 0 .521.09.674.27q.23.272.23.825v.341c-.567.013-1.044.069-1.431.166s-.699.22-.936.37c-.237.148-.406.317-.509.504-.103.187-.154.38-.154.577 0 .232.036.433.11.603.074.17.174.314.302.43.127.115.278.201.452.258.175.057.363.086.566.086.182 0 .35-.016.502-.048.151-.031.293-.08.426-.143.131-.064.26-.141.384-.233q.186-.138.377-.315l.103.418c.035.097.08.16.132.193a.446.446 0 00.23.047h.47v-3.254c0-.292-.04-.557-.12-.796a1.803 1.803 0 00-.347-.62 1.538 1.538 0 00-.564-.405q-.335-.143-.766-.143zm-12.673.23a2.643 2.643 0 00-.713.609l-.088-.538c-.039-.137-.13-.205-.274-.205h-.637v6.825h1.053v-2.175q.25.256.556.402c.204.097.453.146.747.146.332 0 .631-.068.896-.204.264-.135.49-.323.676-.562.185-.24.328-.523.428-.85.1-.326.15-.678.15-1.056q0-.634-.136-1.123c-.09-.327-.216-.6-.38-.82a1.649 1.649 0 00-.587-.505 1.663 1.663 0 00-.763-.174q-.53 0-.928.23zm-4.142-.029a2.591 2.591 0 00-1.002-.186c-.371 0-.707.062-1.006.186-.298.123-.553.3-.766.527a2.334 2.334 0 00-.49.829c-.114.325-.17.69-.17 1.095s.056.77.17 1.095q.172.487.49.831c.213.23.468.406.766.53.3.124.635.186 1.006.186.37 0 .703-.062 1.002-.186.299-.124.553-.3.764-.53.21-.23.373-.506.487-.831.114-.325.171-.69.171-1.095s-.057-.77-.171-1.095a2.346 2.346 0 00-.487-.829 2.137 2.137 0 00-.764-.527zm34.668 0a2.587 2.587 0 00-1.001-.186c-.372 0-.707.062-1.006.186-.299.123-.555.3-.767.527a2.334 2.334 0 00-.489.829c-.114.325-.171.69-.171 1.095s.057.77.171 1.095q.171.487.49.831c.211.23.467.406.766.53s.634.186 1.006.186c.369 0 .703-.062 1.001-.186.3-.124.553-.3.763-.53q.317-.344.488-.831c.115-.325.171-.69.171-1.095s-.056-.77-.17-1.095a2.348 2.348 0 00-.489-.829 2.125 2.125 0 00-.763-.527zm21.589 3.297a2.652 2.652 0 01-.132-.756h3.207c.095 0 .16-.028.196-.085.036-.057.054-.17.054-.337 0-.365-.053-.69-.16-.976q-.159-.43-.443-.727a1.87 1.87 0 00-.675-.449 2.326 2.326 0 00-.852-.153c-.369 0-.7.066-.992.198-.292.133-.54.312-.744.54a2.376 2.376 0 00-.47.804c-.109.308-.164.64-.164.995 0 .445.061.838.184 1.18.122.341.292.628.509.859.217.23.473.406.768.525.296.118.617.178.963.178.176 0 .357-.014.543-.043.186-.028.368-.075.544-.14.176-.066.342-.15.499-.254.157-.104.297-.232.421-.382l-.299-.397a.223.223 0 00-.195-.1.415.415 0 00-.216.073 4.952 4.952 0 01-.284.16c-.11.059-.242.112-.392.16-.15.05-.328.074-.533.074q-.323 0-.585-.103a1.166 1.166 0 01-.45-.314 1.562 1.562 0 01-.302-.53zm-42.624-3.418v5.139h-.945v-3.1c0-.107.006-.228.02-.364.012-.135.029-.262.048-.38l-1.59 2.934a.39.39 0 01-.128.143.306.306 0 01-.176.053h-.113a.295.295 0 01-.174-.053.405.405 0 01-.125-.143l-1.62-2.948c.02.117.036.245.051.384.015.14.022.264.022.374v3.1h-.95v-5.139h.862c.072 0 .143.017.213.05.07.034.132.1.184.196l1.356 2.38c.045.088.087.182.125.283l.11.301c.036-.1.073-.201.113-.301.039-.101.08-.195.127-.282l1.336-2.381c.05-.1.11-.166.182-.198a.523.523 0 01.215-.048h.857zm37.405 2.092a2.615 2.615 0 00-.877-.128h-.969v-1.949h-.999v5.123h1.983c.298 0 .56-.039.791-.118.23-.078.424-.19.583-.334.158-.143.278-.313.36-.51.08-.195.122-.412.122-.65 0-.204-.033-.4-.098-.59a1.277 1.277 0 00-.318-.5 1.562 1.562 0 00-.578-.344zm1.987 3.046h1.053v-5.123h-1.053v5.123zm-70.051-5.123v5.124h-1.053v-3.21a3.467 3.467 0 01.04-.487 4.031 4.031 0 01-.096.203c-.03.062-.064.118-.1.168l-2.17 3.06a.836.836 0 01-.156.182.32.32 0 01-.22.088H109v-5.128h1.053v3.21a4.542 4.542 0 01-.044.497c.065-.154.132-.281.2-.382l2.17-3.053a.765.765 0 01.156-.187.326.326 0 01.22-.085h.637zm5.542 0v5.124h-1.047v-2.326h-2.16v2.326h-1.052v-5.124h1.052v1.984h2.16v-1.984h1.047zm41.71 0v5.124h-1.054v-3.21a3.108 3.108 0 01.04-.487 3.996 3.996 0 01-.096.203c-.03.062-.064.118-.1.168l-2.17 3.06a.828.828 0 01-.156.182.318.318 0 01-.22.088h-.637v-5.128h1.053v3.21c0 .07-.004.15-.012.236a4.654 4.654 0 01-.032.261 2.25 2.25 0 01.2-.382l2.17-3.053a.755.755 0 01.157-.187.324.324 0 01.22-.085h.636zm11.133 0v5.124h-1.048v-2.326h-2.16v2.326h-1.052v-5.124h1.053v1.984h2.159v-1.984h1.048zm5.547 0v5.124h-1.048v-2.326h-2.16v2.326h-1.052v-5.124h1.053v1.984h2.159v-1.984h1.048zm-21.89 4.31v2.225c0 .1-.028.18-.083.238a.283.283 0 01-.216.088h-.65V31.75h-4.227v-5.122h1.054v4.309h2.158v-4.31h1.048v4.31h.916zm33.545-2.83c.05.155.076.323.076.504h-2.482q.087-.607.416-.944c.218-.224.519-.337.9-.337.19 0 .357.033.502.098.145.066.267.156.365.272.098.115.172.25.223.406zm-67.993 1.082q0-.824.428-1.299c.286-.316.695-.492 1.227-.53v3.652c-.532-.037-.941-.213-1.227-.527-.285-.315-.428-.747-.428-1.296zm4.23 0c0 .549-.143.981-.428 1.296-.286.315-.695.49-1.227.527V27.36c.532.037.94.213 1.227.53q.428.474.428 1.298zm5.207 1.329c-.22.309-.556.464-1.007.464-.457 0-.796-.155-1.018-.464q-.333-.466-.333-1.329c0-.576.111-1.02.333-1.334.222-.313.561-.47 1.018-.47.45 0 .787.157 1.007.47.22.314.33.758.33 1.334q0 .863-.33 1.329zm34.668 0c-.22.309-.556.464-1.006.464-.457 0-.796-.155-1.019-.464-.221-.31-.332-.753-.332-1.329s.11-1.02.332-1.334c.223-.313.562-.47 1.019-.47.45 0 .786.157 1.006.47.22.314.33.758.33 1.334 0 .576-.11 1.018-.33 1.329zm-30.707.356a1.271 1.271 0 01-.483-.41V28.09a1.98 1.98 0 01.541-.51c.194-.119.426-.179.693-.179.176 0 .335.033.475.096.14.064.26.166.358.307.097.14.173.322.225.544.052.223.078.492.078.807 0 .609-.115 1.068-.345 1.376-.23.308-.551.462-.962.462-.212 0-.406-.04-.58-.118zm46.903-.14a.82.82 0 01-.289.17q-.174.063-.404.063h-.984v-1.613h.975c.169 0 .313.022.43.063a.771.771 0 01.287.171.656.656 0 01.161.251q.052.143.052.304c0 .12-.02.231-.057.332a.668.668 0 01-.171.258zm-34.23-1.13c.258-.05.574-.08.95-.094v.95c-.186.2-.378.353-.576.459a1.476 1.476 0 01-.707.158c-.108 0-.207-.012-.296-.038a.618.618 0 01-.235-.12.554.554 0 01-.157-.21.765.765 0 01-.056-.31c0-.123.035-.237.105-.342a.825.825 0 01.345-.268c.16-.076.369-.137.627-.186zm-36.346 8.705a2.652 2.652 0 00-.712.609l-.088-.538c-.04-.138-.13-.206-.274-.206H109V45h1.053v-2.175q.25.256.556.402c.204.097.453.146.746.146.333 0 .632-.068.896-.204.265-.136.49-.323.676-.563.186-.239.329-.522.428-.848.1-.327.15-.679.15-1.057q0-.634-.135-1.123c-.09-.327-.216-.6-.38-.821a1.655 1.655 0 00-.587-.505 1.665 1.665 0 00-.764-.173q-.529 0-.928.23zm4.708 3.268a2.614 2.614 0 01-.132-.756h3.207c.094 0 .16-.029.195-.086.037-.056.054-.168.054-.336 0-.365-.053-.69-.159-.977a2.087 2.087 0 00-.443-.726 1.87 1.87 0 00-.675-.45 2.33 2.33 0 00-.852-.152c-.37 0-.7.065-.992.198-.292.132-.54.312-.744.54a2.37 2.37 0 00-.47.803c-.11.309-.164.64-.164.995 0 .446.06.839.184 1.18.122.342.292.628.509.86.217.23.473.406.768.524.295.119.617.178.962.178.177 0 .358-.014.544-.042a2.73 2.73 0 00.543-.14c.176-.066.343-.15.5-.255.156-.103.297-.23.421-.38l-.299-.398a.223.223 0 00-.196-.1.422.422 0 00-.215.072 4.368 4.368 0 01-.284.16c-.11.06-.242.113-.392.161-.15.05-.328.074-.533.074-.215 0-.411-.035-.586-.103q-.261-.103-.45-.314a1.566 1.566 0 01-.301-.53zm13.302 0a2.619 2.619 0 01-.132-.756h3.207c.094 0 .16-.029.196-.086.036-.056.054-.168.054-.336 0-.365-.054-.69-.16-.977a2.087 2.087 0 00-.442-.726 1.87 1.87 0 00-.676-.45 2.33 2.33 0 00-.852-.152c-.369 0-.7.065-.992.198-.292.132-.54.312-.743.54a2.37 2.37 0 00-.47.803c-.11.309-.165.64-.165.995 0 .446.061.839.184 1.18.123.342.292.628.51.86.216.23.472.406.768.524.295.119.616.178.962.178.176 0 .357-.014.543-.042a2.73 2.73 0 00.543-.14c.177-.066.343-.15.5-.255.157-.103.297-.23.421-.38l-.299-.398a.223.223 0 00-.196-.1.422.422 0 00-.215.072 4.362 4.362 0 01-.284.16c-.11.06-.241.113-.392.161-.15.05-.328.074-.533.074-.215 0-.41-.035-.585-.103q-.262-.103-.45-.314a1.567 1.567 0 01-.302-.53zm-2.183-3.403v5.123h-6.816v-5.123h1.053v4.31h1.831v-4.31h1.053v4.31h1.831v-4.31h1.048zm10.746 0v5.123h-1.047v-2.325h-2.16v2.325h-1.052v-5.123h1.053v1.984h2.159v-1.984h1.047zm5.68 0v5.123h-1.053v-3.21q0-.105.01-.23c.007-.084.016-.17.03-.257a4.497 4.497 0 01-.096.204 1.27 1.27 0 01-.1.168l-2.17 3.06a.859.859 0 01-.156.182.324.324 0 01-.22.088h-.637v-5.128h1.053v3.21a4.413 4.413 0 01-.044.497c.065-.154.132-.282.2-.382l2.17-3.054a.749.749 0 01.156-.186.325.325 0 01.22-.085h.637zm4.9 5.123v-5.123h-1.772c-.343 0-.635.042-.879.128a1.733 1.733 0 00-.594.336c-.154.14-.266.298-.336.475-.07.178-.105.359-.105.543 0 .14.023.282.07.424.048.142.124.274.229.394.104.121.241.226.411.317.17.09.375.154.617.191a.956.956 0 00-.519.452l-1.347 1.863h.725c.186 0 .326-.03.418-.092a.771.771 0 00.243-.284l.935-1.372c.033-.053.066-.101.1-.146a.547.547 0 01.118-.11.53.53 0 01.16-.07.914.914 0 01.234-.025h.289v2.1h1.004zm-30.142-3.644c.052.156.077.324.077.505h-2.483c.06-.405.197-.72.416-.945.219-.224.52-.336.901-.336.19 0 .357.033.502.098.145.066.267.156.365.272.098.115.172.25.222.406zm13.303 0c.05.156.076.324.076.505h-2.483c.06-.405.198-.72.416-.945.22-.224.52-.336.901-.336.19 0 .357.033.502.098.145.066.267.156.365.272.098.115.172.25.223.406zm15.836-.766v1.628h-.66q-.447 0-.709-.217a.726.726 0 01-.262-.592c0-.094.015-.19.045-.286a.718.718 0 01.421-.458c.114-.05.256-.075.426-.075h.739zm-36.326 3.534a1.27 1.27 0 01-.482-.41v-2.376c.166-.22.347-.39.541-.509a1.3 1.3 0 01.693-.179c.176 0 .335.033.475.096.14.064.26.166.357.306.098.14.173.323.226.545.052.223.078.492.078.807 0 .609-.115 1.068-.346 1.376-.23.308-.55.462-.961.462a1.39 1.39 0 01-.58-.118zM98 27.505C98 12.315 85.912 0 71 0S44 12.314 44 27.505c0 13.186 9.11 24.203 21.266 26.882v-16.62a.32.32 0 00-.091-.226L62.4 34.713a.308.308 0 00-.222-.093h-2.84a.31.31 0 00-.29.207c-.152.404-.402.768-.725 1.053-.473.42-1.08.652-1.706.652h-.025a2.59 2.59 0 01-1.874-.856 2.685 2.685 0 01-.706-1.96c.043-.717.36-1.372.892-1.843a2.574 2.574 0 013.677.262c.2.235.357.502.466.794a.31.31 0 00.29.204h3.36c.138 0 .27.056.368.156l3.509 3.575c.098.1.153.233.153.375v17.427A26.58 26.58 0 0070.27 55V33.287a.321.321 0 00-.091-.225L62.4 25.139a.311.311 0 00-.221-.094h-5.335a.31.31 0 00-.29.206 2.66 2.66 0 01-.725 1.054c-.474.42-1.08.652-1.706.652H54.1a2.593 2.593 0 01-1.877-.856 2.687 2.687 0 01-.705-1.96c.043-.717.36-1.372.891-1.843a2.573 2.573 0 013.677.262c.201.235.358.502.467.793a.31.31 0 00.29.205h4.357a.316.316 0 00.312-.319v-3.173a.319.319 0 00-.204-.297 2.645 2.645 0 01-1.666-2.662 2.656 2.656 0 01.89-1.818 2.573 2.573 0 013.677.262c.456.535.682 1.219.633 1.927a2.657 2.657 0 01-.89 1.818 2.571 2.571 0 01-.78.476.315.315 0 00-.2.296v3.418c0 .084.033.166.091.226l7.028 7.159a.1.1 0 00.114.023.104.104 0 00.064-.098V14.969a.318.318 0 00-.204-.297A2.645 2.645 0 0168.4 12.01a2.656 2.656 0 01.89-1.818 2.572 2.572 0 013.677.261c.456.535.681 1.22.633 1.927a2.657 2.657 0 01-.89 1.818 2.571 2.571 0 01-.78.477.315.315 0 00-.2.296v19.65c0 .066.049.092.064.098a.101.101 0 00.114-.023l7.027-7.16a.322.322 0 00.092-.225v-5.97a.319.319 0 00-.204-.298 2.645 2.645 0 01-1.666-2.661 2.659 2.659 0 01.89-1.819 2.572 2.572 0 013.677.262c.456.535.681 1.22.633 1.927a2.656 2.656 0 01-.89 1.819 2.571 2.571 0 01-.78.475.316.316 0 00-.2.296v5.726c0 .175.14.318.312.318h4.365a.31.31 0 00.29-.206c.151-.404.402-.769.724-1.054a2.572 2.572 0 013.677.262c.456.534.681 1.219.633 1.926a2.653 2.653 0 01-.89 1.82 2.568 2.568 0 01-1.891.644 2.624 2.624 0 01-2.25-1.697.314.314 0 00-.291-.208h-5.349a.306.306 0 00-.22.094l-7.776 7.92a.321.321 0 00-.09.225V55a26.6 26.6 0 003.544-.334V39.788c0-.142.054-.275.152-.376l3.51-3.575c.098-.1.23-.155.368-.155h3.58c.139-.489.411-.923.792-1.26a2.575 2.575 0 013.677.261c.455.536.68 1.22.632 1.928a2.652 2.652 0 01-.89 1.818 2.575 2.575 0 01-1.891.645 2.614 2.614 0 01-2.319-1.904h-3.063a.309.309 0 00-.222.093l-2.776 2.828a.322.322 0 00-.092.225v14.07C88.891 51.709 98 40.692 98 27.507zM71.865 11.43c.201.235.3.536.279.847-.022.312-.16.596-.392.8a1.132 1.132 0 01-1.617-.116c-.201-.235-.3-.536-.279-.846.021-.311.16-.596.392-.8a1.132 1.132 0 011.617.115zm-8.756 5.097c.2.236.3.536.277.848a1.17 1.17 0 01-.39.8 1.133 1.133 0 01-1.617-.116 1.172 1.172 0 01-.28-.847 1.17 1.17 0 01.392-.8 1.134 1.134 0 011.617.115zm17.4 2.922c.231-.204.37-.489.391-.8a1.17 1.17 0 00-.278-.848 1.133 1.133 0 00-1.617-.115 1.17 1.17 0 00-.392.8c-.021.311.078.612.28.848a1.13 1.13 0 001.616.115zm-25.245 4.934a1.172 1.172 0 00-.278-.847 1.132 1.132 0 00-1.618-.115c-.231.204-.37.489-.391.8-.022.31.077.611.278.847a1.133 1.133 0 001.618.116c.23-.205.37-.489.39-.8zm32.544 4.912c.304.025.6-.076.833-.283.23-.205.37-.489.39-.8a1.173 1.173 0 00-.277-.848 1.132 1.132 0 00-1.618-.115 1.17 1.17 0 00-.392.8c-.02.311.078.612.28.848.2.235.48.377.784.398zM56.612 32.71a1.13 1.13 0 01.867.402c.201.235.3.536.278.847-.02.311-.16.596-.391.801a1.13 1.13 0 01-1.617-.116 1.17 1.17 0 01-.279-.847 1.17 1.17 0 01.391-.8c.21-.186.476-.288.751-.288zm29.527 4.598a1.135 1.135 0 01-1.617-.115 1.177 1.177 0 01-.28-.848 1.17 1.17 0 01.392-.8 1.135 1.135 0 011.618.115c.2.235.3.537.278.848-.021.311-.16.596-.391.8z"/>
  </g>
</svg>
