<svg width="110" height="42" xmlns="http://www.w3.org/2000/svg">
  <defs>
    <linearGradient x1="0" y1=".5" x2="1" y2=".5" id="a">
      <stop offset="0" stop-color="#F26A35"/>
      <stop offset="1" stop-color="#EE3048"/>
    </linearGradient>
  </defs>
  <g fill="#FFF">
    <path d="M62.235 7v9.867h-1.862v-5.675c0-.131.003-.273.01-.426 0-.154.017-.31.034-.468L58 15.371a.788.788 0 01-.74.48h-.286a.788.788 0 01-.74-.48l-2.418-5.086c.012.162.023.32.032.476.008.157.012.3.012.43v5.676H52V7h1.848a.578.578 0 01.185.041.424.424 0 01.152.104c.052.06.095.127.128.2l2.343 5.011c.082.166.163.35.24.536.075.184.152.374.222.568.07-.199.152-.392.222-.582.07-.19.153-.37.247-.541l2.336-4.985a.812.812 0 01.128-.2.424.424 0 01.153-.104.578.578 0 01.184-.041h.241L62.235 7z"/>
    <path d="M67.676 10.676a3.573 3.573 0 00-1.286-.222c-.441-.006-.88.07-1.293.222a2.805 2.805 0 00-1.656 1.64 3.651 3.651 0 00-.23 1.33c-.007.458.071.912.23 1.34.142.382.364.728.651 1.015.287.282.629.5 1.005.64.833.301 1.745.301 2.579 0 .372-.14.711-.358.994-.64a2.88 2.88 0 00.646-1.014c.158-.429.236-.883.23-1.34a3.651 3.651 0 00-.23-1.33 2.852 2.852 0 00-.646-1.004 2.806 2.806 0 00-.994-.637zm-.344 4.36q-.3.451-.942.451c-.438 0-.76-.149-.962-.452-.203-.303-.305-.76-.305-1.377 0-.616.1-1.07.305-1.374.204-.304.535-.45.962-.45.427 0 .74.15.942.45q.301.45.301 1.374c0 .616-.1 1.074-.301 1.377zM72.85 15.124c-.256-.234-.414-.61-.473-1.13h3.573a.59.59 0 00.206-.03c.054-.02.1-.058.129-.108a.551.551 0 00.067-.21c.013-.113.019-.228.017-.342a3.278 3.278 0 00-.207-1.203 2.432 2.432 0 00-1.45-1.454 3.416 3.416 0 00-2.404.052c-.363.155-.69.382-.963.668a2.901 2.901 0 00-.61.977 3.291 3.291 0 00-.213 1.182c-.01.496.074.988.248 1.452.15.392.38.747.677 1.043.284.28.624.496.998.634a3.48 3.48 0 001.225.212c.223 0 .445-.015.666-.044.239-.032.473-.086.7-.162.24-.081.469-.19.682-.325.232-.147.44-.327.62-.536l-.54-.667a.383.383 0 00-.333-.16.689.689 0 00-.322.077l-.334.174a2.914 2.914 0 01-.416.174 1.79 1.79 0 01-.556.077 1.403 1.403 0 01-.988-.35zm1.805-2.642c.038.14.057.285.056.431l-2.31.006a1.58 1.58 0 01.396-.878c.222-.21.52-.32.826-.303.175-.005.348.03.508.101a.958.958 0 01.524.643z" fill-rule="evenodd"/>
    <g>
      <path d="M52.295 23.324a3.46 3.46 0 011.205-.753 4.26 4.26 0 011.55-.277 4.06 4.06 0 011.28.19c.35.108.68.287.976.527.257.212.469.489.619.81.144.322.218.681.215 1.045.003.418-.081.83-.245 1.204a2.172 2.172 0 01-.767.919c.173.104.336.227.488.369.145.132.274.286.383.458.105.164.188.345.247.537.061.197.091.404.09.613.003.43-.07.856-.216 1.251a2.893 2.893 0 01-.63 1.012 2.928 2.928 0 01-1.019.68 3.58 3.58 0 01-1.377.252c-.291 0-.582-.032-.868-.093a4.796 4.796 0 01-1.603-.663 3.537 3.537 0 01-.623-.518l.575-1.049a.608.608 0 01.181-.189.429.429 0 01.245-.076c.13.004.257.047.367.126.128.084.272.177.435.279.184.111.375.205.573.278.44.146.904.166 1.351.057.156-.04.302-.118.43-.229.118-.108.21-.25.268-.41.065-.198.096-.408.09-.619a1.128 1.128 0 00-.106-.503 1.011 1.011 0 00-.299-.369 1.319 1.319 0 00-.46-.222 2.059 2.059 0 00-.59-.066h-1.229v-1.738h1.064c.483 0 .842-.094 1.076-.283a.993.993 0 00.351-.819.897.897 0 00-.323-.727c-.214-.18-.536-.268-.966-.268-.22-.004-.44.028-.653.095-.17.058-.335.13-.495.217-.14.08-.27.15-.38.215a.6.6 0 01-.3.096.368.368 0 01-.247-.08.833.833 0 01-.18-.237l-.483-1.042z"/>
      <path d="M66.621 34.521v-3.225H65.5v-5.549h-4.33q-.057 1.314-.154 2.243c-.05.522-.123 1.04-.221 1.553a5.548 5.548 0 01-.274.982 1.844 1.844 0 01-.32.545.791.791 0 01-.361.236c-.127.033-.256.05-.386.05h-.142v3.765h1.147a.435.435 0 00.375-.178.568.568 0 00.09-.184.745.745 0 00.029-.211v-1.742h4.027v2.315h1.136a.452.452 0 00.366-.169.626.626 0 00.14-.43zm-2.857-7.215v4.05h-1.897c.098-.22.183-.447.252-.681.088-.29.161-.585.219-.885.067-.33.125-.702.177-1.116.053-.413.097-.87.132-1.368h1.117zM72.062 25.97a3.578 3.578 0 00-1.286-.222 3.62 3.62 0 00-1.294.222 2.804 2.804 0 00-1.655 1.64 3.62 3.62 0 00-.23 1.33c-.007.458.07.912.23 1.34.143.382.365.727.652 1.015.286.281.628.5 1.003.64.414.155.853.232 1.294.226.44.006.875-.07 1.286-.226.373-.14.712-.359.994-.64a2.88 2.88 0 00.646-1.014c.159-.429.237-.883.23-1.34a3.65 3.65 0 00-.23-1.33 2.851 2.851 0 00-.646-1.004 2.806 2.806 0 00-.994-.637zm-.344 4.359q-.3.452-.942.452c-.438 0-.76-.15-.962-.452-.202-.303-.304-.76-.304-1.377 0-.616.102-1.07.304-1.374.203-.304.535-.45.962-.45.428 0 .74.15.942.45q.302.45.302 1.374c0 .616-.1 1.074-.302 1.377zM77.656 26.029c-.33.187-.63.43-.885.72l-.148-.512a.47.47 0 00-.485-.352h-1.23v9.236h1.983V32.43c.192.174.408.315.64.419.278.111.574.164.871.155.4.005.797-.09 1.155-.278.348-.185.654-.447.896-.77.259-.347.456-.741.583-1.162a4.9 4.9 0 00.207-1.462 5.784 5.784 0 00-.18-1.51 3.662 3.662 0 00-.503-1.127c-.2-.293-.46-.534-.762-.703a1.95 1.95 0 00-.96-.244 2.368 2.368 0 00-1.182.28zm-.278 5.325a1.343 1.343 0 01-.487-.364v-2.977c.15-.198.333-.366.539-.495.221-.12.468-.176.716-.165a.905.905 0 01.43.1.86.86 0 01.329.33c.104.19.176.397.214.612.056.308.081.62.076.934.006.333-.026.665-.095.99-.05.235-.14.458-.265.66-.101.157-.239.284-.4.369a1.131 1.131 0 01-.506.113 1.423 1.423 0 01-.55-.107zM87.171 25.97a3.578 3.578 0 00-1.285-.222 3.62 3.62 0 00-1.295.222 2.804 2.804 0 00-1.655 1.64 3.62 3.62 0 00-.23 1.33c-.007.458.071.912.23 1.34.143.382.365.727.652 1.015.286.281.628.5 1.003.64.414.155.853.232 1.295.226.438.006.874-.07 1.285-.226.373-.14.712-.359.995-.64a2.88 2.88 0 00.645-1.014c.16-.429.237-.883.23-1.34a3.65 3.65 0 00-.23-1.33 2.851 2.851 0 00-.645-1.004 2.806 2.806 0 00-.995-.637zm-.344 4.359q-.3.452-.941.452c-.438 0-.76-.15-.962-.452-.203-.303-.305-.76-.305-1.377 0-.616.102-1.07.305-1.374.202-.304.535-.45.962-.45.427 0 .74.15.941.45q.302.45.302 1.374c0 .616-.1 1.074-.302 1.377zM92.98 25.748c.4-.006.8.034 1.188.118.297.063.579.173.833.327.416.248.663.673.652 1.124 0 .145-.02.289-.058.43-.04.15-.108.292-.201.42a1.43 1.43 0 01-.393.365c-.194.121-.41.21-.638.262.206.043.407.107.598.191.175.078.337.18.477.302a1.228 1.228 0 01.426.959c.01.305-.072.607-.237.874-.154.24-.367.443-.623.595a3 3 0 01-.894.338 4.841 4.841 0 01-1.028.108h-3.065v-6.413h2.964zm-.955 1.198v1.415h.894a.934.934 0 00.635-.212.687.687 0 00.246-.547c0-.08-.014-.16-.042-.235a.498.498 0 00-.143-.21.789.789 0 00-.273-.15 1.31 1.31 0 00-.423-.06h-.894zm1.665 3.755a.95.95 0 01-.628.194l-1.037-.006v-1.396h1.037c.15-.004.3.014.443.053.101.029.192.08.263.15.062.062.104.136.124.216.02.086.031.173.031.261a.652.652 0 01-.233.528zM101.683 28.182a4.377 4.377 0 00-1.28-.163l-1.057-.008v-2.264h-2.018v6.414h3.09a4.05 4.05 0 001.162-.151 2.62 2.62 0 00.868-.427 1.868 1.868 0 00.728-1.516c.002-.266-.05-.53-.153-.78a1.67 1.67 0 00-.482-.652 2.408 2.408 0 00-.858-.453zm-.632 2.445a.898.898 0 01-.648.213l-1.049.006v-1.51h1.05c.13-.002.261.018.384.06.104.034.197.089.273.161.07.067.124.147.158.234a.741.741 0 01.052.276.747.747 0 01-.22.56zM106.48 30.418c-.253-.234-.412-.61-.472-1.13h3.573c.07.002.14-.008.207-.03a.25.25 0 00.128-.108.528.528 0 00.066-.21c.013-.113.019-.228.018-.342a3.31 3.31 0 00-.206-1.203 2.438 2.438 0 00-1.45-1.454 3.42 3.42 0 00-2.406.052 2.875 2.875 0 00-1.573 1.645 3.292 3.292 0 00-.213 1.182c-.01.496.075.988.25 1.452.15.391.38.747.675 1.043.285.28.626.496 1 .634a3.47 3.47 0 001.223.212c.223 0 .446-.015.667-.044.238-.032.473-.086.7-.162.24-.08.469-.19.682-.325.232-.147.44-.327.62-.536l-.538-.667a.386.386 0 00-.336-.161.683.683 0 00-.32.078c-.102.052-.214.11-.335.174-.134.069-.273.127-.416.174-.18.055-.368.081-.556.077a1.405 1.405 0 01-.987-.35zm1.805-2.642c.038.14.057.285.057.431l-2.31.006a1.59 1.59 0 01.395-.878c.222-.21.52-.32.825-.303.175-.005.35.03.51.101a.952.952 0 01.337.268c.086.111.15.238.186.375z" fill-rule="evenodd"/>
    </g>
  </g>
  <path d="M8.999 0h24.002A8.999 8.999 0 0142 8.999v24.002A8.999 8.999 0 0133.001 42H8.999A8.999 8.999 0 010 33.001V8.999A8.999 8.999 0 018.999 0z" fill="#FFF"/>
  <path d="M14.25 2.244c.598.538 1.38.838 2.192.842h.107a3.315 3.315 0 002.202-.842C21.279.004 24.945-.69 28.13.761 31.212 2.166 33 5.203 33 8.416c.003.37-.202.713-.534.89a1.051 1.051 0 01-1.057-.037 28.455 28.455 0 00-14.826-4.113h-.155a28.42 28.42 0 00-14.84 4.22c-.317.196-.717.21-1.046.036a1.005 1.005 0 01-.54-.875C-.05 5.28 1.748 2.184 4.871.761c3.184-1.45 6.85-.753 9.378 1.483zM1.424 13.18c.512.811 1.242 1.794 2.09 2.881.337.425.957.516 1.407.206 6.968-4.747 16.219-4.777 23.22-.076.45.303 1.062.21 1.396-.212a33.556 33.556 0 002.083-2.89.994.994 0 00-.298-1.353c-8.922-6.017-20.732-5.98-29.615.09a.995.995 0 00-.283 1.354zm7.073 8.746a181.46 181.46 0 01-2.308-2.635.992.992 0 01.22-1.488c6.112-4.01 14.09-4.042 20.235-.08a.994.994 0 01.225 1.492c-.748.872-1.531 1.762-2.307 2.64-.33.37-.884.454-1.312.198a12.958 12.958 0 00-13.434.067c-.429.262-.988.18-1.32-.194zm7.794.38c-2.884.076-4.312 3.468-2.36 5.543l.075.083A3.422 3.422 0 0016.497 29c.947 0 1.85-.387 2.491-1.068l.103-.11c1.97-2.095.475-5.5-2.438-5.517h-.362z" transform="translate(5 7)" fill="url(#a)" fill-rule="evenodd"/>
</svg>
