<svg width="46" height="46" xmlns="http://www.w3.org/2000/svg">
  <path d="M45.5 23c0 12.426-10.074 22.5-22.5 22.5S.5 35.426.5 23 10.574.5 23 .5 45.5 10.574 45.5 23zM1.457 23c0 11.898 9.645 21.543 21.543 21.543S44.543 34.898 44.543 23 34.898 1.457 23 1.457 1.457 11.102 1.457 23z" fill="#DCDCDC" fill-rule="evenodd"/>
  <path d="M12.453 33.547V18.09h3.422v-5.638h17.672v17.364c0 2.432-1.068 3.73-3.137 3.73H12.453zm20.39-20.39h-16.26v15.27h-.716v-9.633h-2.71v14.05h17.262c1.639 0 2.425-.955 2.425-3.027v-16.66z" fill="#FF5252" fill-rule="evenodd"/>
  <g fill="#FF5252">
    <path d="M19.814 23.681a.33.33 0 01-.33-.33 5.28 5.28 0 015.274-5.273c1.408 0 2.733.549 3.728 1.545a.33.33 0 11-.466.466 4.582 4.582 0 00-3.262-1.352 4.62 4.62 0 00-4.614 4.615.33.33 0 01-.33.33z"/>
    <path d="M28.548 20.715h-1.812a.33.33 0 110-.66h1.648v-1.647a.33.33 0 11.659 0v1.811a.496.496 0 01-.495.496zM24.758 28.625a5.237 5.237 0 01-3.729-1.545.33.33 0 11.466-.466 4.582 4.582 0 003.263 1.352 4.62 4.62 0 004.614-4.614.33.33 0 11.66 0 5.28 5.28 0 01-5.274 5.273z"/>
    <path d="M20.802 28.625a.33.33 0 01-.33-.33v-1.811c0-.274.223-.496.496-.496h1.812a.33.33 0 110 .66h-1.648v1.647a.33.33 0 01-.33.33z"/>
  </g>
</svg>
