<svg width="45" height="45" xmlns="http://www.w3.org/2000/svg">
  <g fill-rule="evenodd">
    <path d="M45 22.5C45 34.926 34.926 45 22.5 45S0 34.926 0 22.5 10.074 0 22.5 0 45 10.074 45 22.5zm-44.043 0c0 11.898 9.645 21.543 21.543 21.543 11.897 0 21.542-9.645 21.542-21.543S34.397.958 22.5.958C10.602.958.957 10.602.957 22.5z" fill="#DCDCDC"/>
    <path d="M27.838 10H16.162C14.968 10 14 10.949 14 12.119V32.88c0 1.17.968 2.119 2.162 2.119h11.676C29.032 35 30 34.052 30 32.881V12.12c0-1.17-.968-2.119-2.162-2.119zm-12.973 2.119c0-.702.58-1.272 1.297-1.272h11.676c.716 0 1.297.57 1.297 1.272V32.88c0 .702-.58 1.271-1.297 1.271H16.162c-.716 0-1.297-.569-1.297-1.27V12.118zm11.437-.619h-8.603c-1.187 0-2.15.941-2.15 2.102v14.296c0 1.16.963 2.102 2.15 2.102h8.603c1.187 0 2.15-.941 2.15-2.102V13.602c0-1.16-.963-2.102-2.15-2.102zm-9.893 2.102c0-.696.578-1.261 1.29-1.261h8.603c.712 0 1.29.565 1.29 1.261v14.296c0 .696-.578 1.261-1.29 1.261h-8.603c-.712 0-1.29-.565-1.29-1.261V13.602zM21.999 34c.998 0 1.807-.784 1.807-1.75S22.997 30.5 22 30.5c-.998 0-1.807.784-1.807 1.75S21.003 34 22 34zm0-.875c-.498 0-.902-.392-.902-.875s.404-.875.903-.875.903.392.903.875-.404.875-.903.875z" fill="#FFF"/>
  </g>
</svg>
