<?xml version="1.0" encoding="utf-8"?>
<svg width="88" height="26" xmlns:xlink="http://www.w3.org/1999/xlink" xmlns="http://www.w3.org/2000/svg">
  <defs>
    <linearGradient x1=".607" y1=".096" x2=".99" y2=".609" id="d">
      <stop offset="0" stop-color="#FF177B"/>
      <stop offset="1" stop-color="#FFEC73"/>
    </linearGradient>
    <linearGradient x1=".063" y1="-.44" x2="-1.196" y2="1.011" id="e">
      <stop offset="0" stop-color="#064AA2"/>
      <stop offset="1" stop-color="#63FFD4"/>
    </linearGradient>
    <linearGradient x1=".846" y1=".5" x2="-.073" y2="1" id="h">
      <stop offset="0" stop-color="#FF4521"/>
      <stop offset="1" stop-color="#8A33DB"/>
    </linearGradient>
    <linearGradient x1="0" y1="-.839" x2=".642" y2="1.403" id="i">
      <stop offset="0" stop-color="#00A3B5"/>
      <stop offset="1" stop-color="#D6FFA1"/>
    </linearGradient>
    <clipPath id="f">
      <use xlink:href="#a"/>
    </clipPath>
    <clipPath id="g">
      <use xlink:href="#b"/>
    </clipPath>
    <clipPath id="j">
      <use xlink:href="#c"/>
    </clipPath>
    <path d="M6.817 6.337L.245 0C.092.036 0 .153 0 .35v12.125c0 .166.066.265.147.3l6.67-6.438z" id="a"/>
    <path d="M.27 6.4L4.07 4.279l1.678-.946 2.762-1.514L6.67 0 0 6.438a.46.46 0 00.308-.04" transform="translate(.001 .025)" id="b"/>
    <path d="M.354.073A.485.485 0 000 .013l6.578 6.346 1.82-1.752L5.653 3.06 1.508.723.354.073z" transform="translate(.045 .034)" id="c"/>
  </defs>
  <path d="M12.871.617H75.13C81.96.617 87.5 6.156 87.5 12.988v.002c0 6.833-5.539 12.372-12.371 12.372H12.87C6.04 25.362.5 19.822.5 12.99v-.002C.5 6.156 6.039.617 12.871.617z" fill="none" stroke="#FFF"/>
  <path d="M5.878 3.06L.587.079C.293-.088 0 .013 0 .358V12.51c0 .259.209.371.464.227l5.414-3.052 1.051-.592 1.692-.953 2.637-1.486c.31-.175.28-.414.019-.551-.262-.138-2.656-1.496-2.656-1.496L5.878 3.06z" transform="translate(10.692 6.585)" fill="url(#d)"/>
  <path d="M6.817 6.337L.245 0C.092.036 0 .153 0 .35v12.125c0 .166.066.265.147.3l6.67-6.438z" fill="url(#e)" transform="translate(10.675 6.6)"/>
  <path d="M17.493 12.938L10.92 6.6c-.154.037-.246.153-.246.35v12.125c0 .167.066.266.148.3l6.67-6.437z" fill="none"/>
  <g clip-path="url(#f)" transform="translate(10.675 6.6)">
    <path d="M8.632 4.59L5.886 3.045C5.876 3.066.88.244.589.1.292-.088 0 .013 0 .35v12.175c0 .267.209.38.441.249.278-.157 5.435-3.07 5.445-3.094l2.746-1.547c-.014.022 2.312-1.293 2.6-1.447.33-.195.301-.434.049-.548-.27-.162-2.663-1.523-2.649-1.547" fill="none"/>
  </g>
  <g>
    <path d="M11.093 19.339l3.799-2.123 1.678-.946 2.762-1.514-1.839-1.818-6.67 6.438a.46.46 0 00.308-.04" fill="none"/>
    <g clip-path="url(#g)" transform="translate(10.822 12.913)">
      <path d="M5.886 3.037C5.876 3.06.88.237.589.093.292-.094 0 .006 0 .343v12.175c0 .268.209.38.441.25.278-.158 5.435-3.071 5.445-3.094l2.746-1.547c-.014.022 2.312-1.293 2.6-1.447.33-.195.301-.435.049-.549-.27-.16-2.663-1.522-2.649-1.547L5.886 3.037z" transform="translate(-.146 -6.306)" fill="url(#h)"/>
    </g>
  </g>
  <g>
    <path d="M.354.073A.485.485 0 000 .013l6.578 6.346 1.82-1.752L5.653 3.06 1.508.723.354.073z" transform="translate(10.915 6.585)" fill="url(#i)"/>
    <path d="M11.27 6.658a.485.485 0 00-.355-.061l6.578 6.346 1.82-1.752-2.743-1.546-4.147-2.337-1.154-.65z" fill="none"/>
    <g clip-path="url(#j)" transform="translate(10.87 6.55)">
      <path d="M8.437 4.64L5.69 3.095C5.68 3.116.685.294.393.15.097-.038-.195.063-.195.4v12.174c0 .268.209.38.441.25.278-.157 5.435-3.07 5.444-3.094l2.747-1.547c-.014.022 2.312-1.293 2.6-1.447.33-.195.3-.434.048-.549-.27-.16-2.662-1.522-2.648-1.546" fill="none"/>
    </g>
  </g>
  <g fill="#FFF">
    <path d="M56.692 19.095l.542-.519c.052-.053-.021-.014-.021-.014-.367.184-.766.362-1.304.362-1.077 0-2.051-.85-2.333-2.314l.872-.069 2.664-1.093c-.081-.264-.228-.758-.794-1.139a2.18 2.18 0 00-1.167-.322c-1.166 0-2.597.875-2.597 2.66 0 .861.352 1.85 1.156 2.425.58.425 1.147.45 1.509.45.34 0 .723-.044 1.099-.218.124-.058.249-.139.374-.209zm-.76-3.765c0 .162-.112.231-.326.311l-2.039.916c-.011-.208-.034-.416-.034-.612 0-1.251.84-1.612 1.288-1.612.604 0 1.11.535 1.11.997z" fill-rule="evenodd"/>
    <path d="M51.675 18.513c0 .446.078.516.45.55.193.024.386.034.576.057l-.417.253h-1.99c.26-.344.305-.379.305-.608v-.256l-.004-6.825h-.88l.847-.414h1.615c-.35.206-.455.331-.5.733l-.002 6.51"/>
    <path d="M48.587 14.55c.259.217.799.677.799 1.549 0 .85-.47 1.25-.946 1.63-.145.15-.316.311-.316.561 0 .254.17.392.293.495l.408.32c.495.425.946.816.946 1.608 0 1.08-1.026 2.168-2.966 2.168-1.634 0-2.424-.792-2.424-1.641 0-.413.202-.999.87-1.4.698-.435 1.645-.493 2.153-.527-.159-.208-.34-.426-.34-.782 0-.194.058-.31.113-.447-.123.012-.247.024-.36.024-1.196 0-1.872-.908-1.872-1.803 0-.528.237-1.113.722-1.538.643-.539 1.41-.632 2.019-.632h2.324l-.723.415h-.7zm-.193 2.036c0 .207-.022.572-.282.836-.177.181-.48.32-.762.32-.964 0-1.403-1.27-1.403-2.037 0-.297.057-.606.247-.845.18-.23.495-.379.786-.379.933 0 1.414 1.282 1.414 2.105zm-.6 3.047c-.094-.013-.15-.013-.262-.013-.103 0-.717.023-1.193.187-.252.095-.979.374-.979 1.204 0 .828.785 1.426 2 1.426 1.091 0 1.67-.538 1.67-1.262 0-.596-.374-.91-1.237-1.542zM38.802 16.796c0 1.295.961 2.725 2.757 2.725 1.843 0 2.871-1.443 2.871-2.807 0-1.397-1.04-2.727-2.701-2.727-1.719 0-2.927 1.295-2.927 2.809zm4.503.505c0 .45-.067.914-.341 1.285a1.44 1.44 0 01-1.157.59c-1.375 0-1.928-1.89-1.928-3.034 0-.5.079-1.01.521-1.416a1.562 1.562 0 011.023-.393c1.406 0 1.882 1.947 1.882 2.968zM32.782 16.796c0 1.295.96 2.725 2.757 2.725 1.844 0 2.871-1.443 2.871-2.807 0-1.397-1.04-2.727-2.7-2.727-1.719 0-2.928 1.295-2.928 2.809zm4.503.505c0 .45-.068.914-.34 1.285-.262.37-.714.59-1.157.59-1.373 0-1.93-1.89-1.93-3.034 0-.5.08-1.01.523-1.416a1.556 1.556 0 011.02-.393c1.406 0 1.884 1.947 1.884 2.968z" fill-rule="evenodd"/>
    <path d="M32.037 19.18l-1.521.353c-.617.1-1.17.186-1.756.186-2.935 0-4.053-2.195-4.053-3.913 0-2.097 1.584-4.042 4.297-4.042.574 0 1.127.085 1.63.225.797.227 1.17.508 1.403.672l-.884.853-.372.085.265-.43c-.36-.357-1.021-1.016-2.276-1.016-1.679 0-2.945 1.296-2.945 3.189 0 2.033 1.446 3.945 3.764 3.945.682 0 1.033-.14 1.351-.27v-1.742l-1.606.088.851-.465h2.255l-.276.27c-.075.064-.085.086-.105.172a7.847 7.847 0 00-.022.521v1.318"/>
    <path d="M60.517 21.547V18.63c.43.611 1.1 1.002 1.847 1.002 1.42 0 2.377-1.113 2.377-2.828 0-1.726-.957-2.816-2.377-2.816a2.27 2.27 0 00-1.847.98v-.846h-.572v7.426h.572zm1.771-7.016c1.193 0 1.866 1.002 1.866 2.317 0 1.316-.673 2.327-1.866 2.327-.74 0-1.448-.614-1.756-1.132V15.64c.308-.517 1.016-1.11 1.756-1.11z" fill-rule="evenodd"/>
    <path d="M65.524 12.06h.587v7.461h-.587v-7.46zM72.496 21.033c.123.056.332.09.464.09.35 0 .595-.145.814-.657l.417-.958-2.256-5.422h.64l1.935 4.698 1.916-4.698h.648l-2.752 6.56c-.285.675-.735 1-1.352 1a2.24 2.24 0 01-.572-.078l.098-.535"/>
    <path d="M70.791 19.023c.021.138.05.303.089.49h.664a3.572 3.572 0 01-.148-1.091v-2.667c0-.57-.192-1.007-.574-1.31-.383-.305-.892-.458-1.52-.458-.63 0-1.142.156-1.532.465-.393.309-.577.667-.556 1.075l.012.03h.59c0-.303.133-.555.4-.758.268-.198.62-.3 1.054-.3.475 0 .842.111 1.103.332.26.22.39.525.39.912v.671H69.42c-.72 0-1.302.15-1.752.453-.45.3-.676.694-.676 1.178 0 .486.156.869.466 1.152.31.283.746.423 1.307.423.466 0 .806-.095 1.164-.288a2.29 2.29 0 00.835-.73c0 .143.01.284.027.421zm-.757-.228c-.359.22-.71.331-1.2.331-.374 0-.668-.094-.883-.284a.942.942 0 01-.323-.745c0-.329.17-.611.507-.844.335-.235.762-.35 1.277-.35h1.349v1.043c-.127.345-.37.63-.727.849z" fill-rule="evenodd"/>
  </g>
  <path d="M25.47 8.295h-.266v1.439h.543V8.78h2.28v.954h.542v-1.44h-.446V5.32h-1.782a7.812 7.812 0 01-.297 1.567c-.154.52-.345.99-.574 1.408zm1.079-1.24c.142-.472.23-.887.264-1.245h.746v2.485h-1.494c.181-.354.342-.767.484-1.24zm4.833.412c0 .427-.109.76-.328 1-.218.24-.523.36-.913.36-.244 0-.46-.055-.647-.165a1.093 1.093 0 01-.432-.476 1.624 1.624 0 01-.15-.72c0-.424.108-.755.325-.993.217-.239.523-.358.918-.358.378 0 .677.122.897.366.22.244.33.572.33.986zm1.69 1.36c-.395 0-.695-.115-.9-.346-.206-.231-.308-.563-.308-.996 0-.44.107-.778.322-1.015.215-.236.525-.355.93-.355.276 0 .524.051.744.154l-.167.447c-.235-.091-.428-.137-.58-.137-.452 0-.678.3-.678.902 0 .293.056.514.169.661.112.148.277.222.494.222.247 0 .48-.062.701-.185v.485c-.1.058-.205.1-.317.126a1.9 1.9 0 01-.41.037zm14.59-.36c.218-.24.328-.573.328-1 0-.414-.11-.742-.33-.986-.22-.244-.52-.366-.897-.366-.395 0-.701.12-.918.358-.218.238-.326.57-.326.994 0 .273.05.512.15.719.102.207.246.365.433.476.187.11.403.165.646.165.39 0 .695-.12.914-.36zM36.374 6.599v-.435h-2.256v.435h.85V8.78h.556V6.598h.85zm.106-.435h.604l.531 1.483c.08.212.134.41.16.597h.02c.014-.087.04-.192.077-.316.038-.124.238-.712.6-1.764h.6l-1.117 2.965c-.203.544-.541.816-1.015.816-.123 0-.242-.013-.359-.04v-.44c.084.019.18.028.286.028.267 0 .455-.155.564-.466l.097-.246-1.048-2.617zm5.27 2.617V6.163h-2.282V8.78h.554V6.603h1.171V8.78h.557zm1.347-2.617v1.05h1.23v-1.05h.555V8.78h-.555V7.651h-1.23V8.78h-.554V6.163h.554zm8.51 1.23c.361-.065.541-.251.541-.56 0-.447-.341-.67-1.024-.67h-1.241V8.78h1.246c.358 0 .632-.067.82-.2a.658.658 0 00.282-.571.54.54 0 00-.16-.405c-.108-.104-.262-.168-.463-.192v-.019zm-21.457.98c-.445 0-.668-.302-.668-.906 0-.29.053-.51.157-.665.105-.155.274-.232.507-.232.443 0 .665.299.665.897 0 .604-.22.906-.66.906zm15.94-.906c0 .604.223.906.668.906.44 0 .66-.302.66-.906 0-.598-.221-.897-.665-.897-.233 0-.401.077-.506.232-.105.154-.157.376-.157.665zm5.382-.813c.081.046.122.121.122.226 0 .126-.048.213-.144.261-.096.048-.237.072-.423.072h-.59v-.63h.673c.16 0 .281.024.362.07zm.19 1.321c0-.126-.049-.215-.146-.268-.098-.053-.244-.08-.44-.08h-.639v.741h.654c.38 0 .571-.13.571-.393z" fill="#FFF" fill-rule="evenodd"/>
</svg>
