<?xml version="1.0" encoding="utf-8"?>
<svg width="162" height="45" xmlns:xlink="http://www.w3.org/1999/xlink" xmlns="http://www.w3.org/2000/svg">
  <defs>
    <linearGradient x1=".607" y1=".096" x2=".99" y2=".609" id="d">
      <stop offset="0" stop-color="#FF177B"/>
      <stop offset="1" stop-color="#FFEC73"/>
    </linearGradient>
    <linearGradient x1=".063" y1="-.44" x2="-1.196" y2="1.011" id="e">
      <stop offset="0" stop-color="#064AA2"/>
      <stop offset="1" stop-color="#63FFD4"/>
    </linearGradient>
    <linearGradient x1=".846" y1=".5" x2="-.073" y2="1" id="h">
      <stop offset="0" stop-color="#FF4521"/>
      <stop offset="1" stop-color="#8A33DB"/>
    </linearGradient>
    <linearGradient x1="0" y1="-.839" x2=".642" y2="1.403" id="i">
      <stop offset="0" stop-color="#00A3B5"/>
      <stop offset="1" stop-color="#D6FFA1"/>
    </linearGradient>
    <clipPath id="f">
      <use xlink:href="#a"/>
    </clipPath>
    <clipPath id="g">
      <use xlink:href="#b"/>
    </clipPath>
    <clipPath id="j">
      <use xlink:href="#c"/>
    </clipPath>
    <path d="M12.216 11.271L.44 0C.165.064 0 .272 0 .621v21.567c0 .296.118.473.264.533l11.952-11.45z" id="a"/>
    <path d="M.484 11.385l6.807-3.776 3.007-1.683 4.95-2.692L11.952 0 0 11.45c.133.044.368.02.551-.071" transform="translate(.002 .045)" id="b"/>
    <path d="M.634.13C.407.007.182-.028 0 .022L11.786 11.31l3.261-3.117-4.915-2.75-7.43-4.156L.634.13z" transform="translate(.08 .06)" id="c"/>
  </defs>
  <path d="M22.499.5h116.288c12.149 0 21.999 9.85 21.999 21.999v.002c0 12.15-9.85 21.999-21.999 21.999H22.499C10.349 44.5.5 34.65.5 22.501v-.002C.5 10.349 10.35.5 22.499.5z" fill="none" stroke="#FFF"/>
  <path d="M10.533 5.444L1.051.139C.524-.156 0 .023 0 .638V22.25c0 .46.375.66.832.405l9.701-5.428 1.884-1.053 3.031-1.696s4.17-2.334 4.726-2.643c.553-.31.5-.736.033-.98-.469-.245-4.759-2.662-4.759-2.662l-4.915-2.75z" transform="translate(21.182 16.275)" fill="url(#d)"/>
  <path d="M12.216 11.271L.44 0C.165.064 0 .272 0 .621v21.567c0 .296.118.473.264.533l11.952-11.45z" fill="url(#e)" transform="translate(21.153 16.303)"/>
  <path d="M33.37 27.575L21.592 16.303c-.275.065-.44.272-.44.621v21.567c0 .296.119.473.264.533l11.952-11.45z" fill="none"/>
  <g clip-path="url(#f)" transform="translate(21.153 16.303)">
    <path d="M15.468 8.165l-4.922-2.751c-.017.04-8.97-4.98-9.491-5.236C.524-.156 0 .023 0 .62v21.656c0 .476.374.676.791.443.498-.28 9.738-5.461 9.755-5.502l4.922-2.751c-.026.038 4.143-2.3 4.658-2.574.593-.347.54-.773.088-.977-.483-.286-4.772-2.708-4.746-2.75" fill="none"/>
  </g>
  <g>
    <path d="M21.902 38.96l6.807-3.776 3.006-1.682 4.95-2.693-3.295-3.233-11.952 11.45c.133.043.368.02.55-.072" fill="none"/>
    <g clip-path="url(#g)" transform="translate(21.416 27.53)">
      <path d="M10.546 5.403c-.017.04-8.97-4.98-9.491-5.237C.524-.167 0 .012 0 .61v21.655c0 .476.374.676.791.444.498-.28 9.738-5.462 9.755-5.502l4.922-2.752c-.026.039 4.143-2.3 4.658-2.573.593-.348.54-.774.088-.977-.483-.286-4.772-2.708-4.746-2.751l-4.922-2.751z" transform="translate(-.262 -11.216)" fill="url(#h)"/>
    </g>
  </g>
  <g>
    <path d="M.634.13C.407.007.182-.028 0 .022L11.786 11.31l3.261-3.117-4.915-2.75-7.43-4.156L.634.13z" transform="translate(21.583 16.275)" fill="url(#i)"/>
    <path d="M22.217 16.405c-.226-.123-.452-.158-.634-.108L33.37 27.585l3.26-3.117-4.915-2.749-7.43-4.157-2.068-1.157z" fill="none"/>
    <g clip-path="url(#j)" transform="translate(21.503 16.214)">
      <path d="M15.118 8.254l-4.922-2.751C10.18 5.543 1.226.523.705.266.175-.067-.35.112-.35.71v21.655c0 .476.375.676.791.444.498-.28 9.738-5.462 9.755-5.502l4.922-2.752c-.025.039 4.143-2.3 4.658-2.573.594-.347.54-.773.088-.977-.483-.286-4.771-2.708-4.746-2.751" fill="none"/>
    </g>
  </g>
  <g fill="#FFF">
    <path d="M103.61 31.93l.972-.924c.093-.095-.038-.026-.038-.026-.657.327-1.372.645-2.336.645-1.93 0-3.676-1.514-4.182-4.116l1.563-.122 4.774-1.944c-.146-.47-.408-1.35-1.423-2.026-.61-.389-1.36-.573-2.09-.573-2.091 0-4.654 1.556-4.654 4.73 0 1.532.63 3.291 2.071 4.314 1.038.757 2.055.8 2.703.8.61 0 1.296-.078 1.97-.387.223-.103.446-.247.67-.371zm-1.363-6.697c0 .287-.199.41-.582.553l-3.654 1.628c-.02-.37-.06-.74-.06-1.087 0-2.227 1.505-2.868 2.307-2.868 1.082 0 1.99.95 1.99 1.774z" fill-rule="evenodd"/>
    <path d="M94.62 30.895c0 .793.14.916.805.978.347.042.692.06 1.034.1l-.749.45h-3.566c.468-.612.548-.673.548-1.08v-.456l-.008-12.14H91.11l1.516-.737h2.895c-.628.367-.815.59-.896 1.305l-.004 11.58"/>
    <path d="M89.087 23.846c.464.385 1.432 1.203 1.432 2.754 0 1.512-.844 2.224-1.695 2.899-.26.266-.566.554-.566.999 0 .452.305.697.525.88l.73.569c.887.756 1.696 1.45 1.696 2.86 0 1.92-1.84 3.856-5.315 3.856-2.928 0-4.343-1.409-4.343-2.92 0-.734.362-1.775 1.557-2.489 1.253-.773 2.95-.877 3.858-.937-.283-.37-.607-.758-.607-1.39 0-.347.103-.553.202-.796-.22.02-.444.042-.646.042-2.143 0-3.354-1.615-3.354-3.206 0-.94.424-1.981 1.294-2.736 1.152-.958 2.526-1.123 3.617-1.123h4.164l-1.294.738h-1.255zm-.345 3.62c0 .369-.04 1.018-.506 1.487-.318.322-.86.57-1.365.57-1.728 0-2.514-2.26-2.514-3.623 0-.529.102-1.079.442-1.503.321-.41.886-.674 1.408-.674 1.672 0 2.535 2.28 2.535 3.743zm-1.077 5.42c-.167-.023-.267-.023-.469-.023-.185 0-1.285.04-2.137.332-.451.169-1.754.666-1.754 2.142 0 1.473 1.407 2.535 3.583 2.535 1.956 0 2.994-.956 2.994-2.244 0-1.06-.672-1.619-2.217-2.743zM71.553 27.839c0 2.304 1.722 4.848 4.94 4.848 3.302 0 5.145-2.567 5.145-4.993 0-2.484-1.864-4.85-4.841-4.85-3.08 0-5.244 2.303-5.244 4.995zm8.068.898c0 .803-.12 1.626-.61 2.286-.468.659-1.28 1.049-2.074 1.049-2.463 0-3.455-3.36-3.455-5.396 0-.89.142-1.796.935-2.517a2.81 2.81 0 011.832-.7c2.52 0 3.372 3.463 3.372 5.278zM60.766 27.839c0 2.304 1.72 4.848 4.94 4.848 3.304 0 5.145-2.567 5.145-4.993 0-2.484-1.863-4.85-4.84-4.85-3.079 0-5.245 2.303-5.245 4.995zm8.068.898c0 .803-.122 1.626-.61 2.286-.469.659-1.28 1.049-2.073 1.049-2.46 0-3.456-3.36-3.456-5.396 0-.89.14-1.796.936-2.517a2.8 2.8 0 011.829-.7c2.518 0 3.374 3.463 3.374 5.278z" fill-rule="evenodd"/>
    <path d="M59.43 32.08l-2.725.629c-1.105.175-2.097.33-3.147.33-5.258 0-7.262-3.904-7.262-6.96 0-3.73 2.839-7.19 7.7-7.19 1.03 0 2.019.153 2.92.4 1.429.405 2.097.904 2.515 1.197l-1.584 1.517-.668.15.477-.765c-.645-.635-1.83-1.807-4.08-1.807-3.008 0-5.276 2.306-5.276 5.672 0 3.616 2.59 7.017 6.745 7.017 1.221 0 1.85-.248 2.42-.478v-3.1l-2.878.156 1.525-.826h4.04l-.494.48c-.133.113-.151.152-.189.305-.02.175-.038.732-.038.928v2.344"/>
    <path d="M110.465 36.29V31.1c.77 1.088 1.97 1.781 3.309 1.781 2.545 0 4.259-1.98 4.259-5.028 0-3.07-1.714-5.009-4.26-5.009-1.418 0-2.64.77-3.308 1.743v-1.504h-1.027V36.29h1.027zm3.174-12.48c2.136 0 3.342 1.784 3.342 4.122 0 2.341-1.206 4.14-3.342 4.14-1.327 0-2.597-1.093-3.148-2.015v-4.272c.551-.92 1.82-1.974 3.148-1.974z" fill-rule="evenodd"/>
    <path d="M119.436 19.416h1.052v13.271h-1.052v-13.27zM131.93 35.377c.22.098.594.158.832.158.627 0 1.064-.258 1.457-1.168l.749-1.704-4.043-9.643h1.145l3.468 8.356 3.434-8.356h1.161l-4.93 11.666c-.513 1.202-1.318 1.78-2.423 1.78-.332 0-.77-.059-1.026-.138l.176-.951"/>
    <path d="M128.874 31.801c.038.246.09.54.159.873h1.19a6.314 6.314 0 01-.265-1.943v-4.743c0-1.015-.344-1.792-1.03-2.329-.686-.543-1.597-.815-2.722-.815-1.129 0-2.046.276-2.746.826-.704.55-1.034 1.187-.996 1.913l.021.052h1.057c0-.539.24-.986.716-1.346.481-.354 1.112-.535 1.89-.535.852 0 1.509.198 1.977.591.466.392.7.934.7 1.622v1.194h-2.408c-1.29 0-2.333.267-3.14.805-.806.535-1.21 1.234-1.21 2.096 0 .863.279 1.545.834 2.048.557.505 1.337.753 2.343.753.835 0 1.444-.169 2.085-.513.64-.342 1.142-.776 1.495-1.298 0 .254.018.505.05.75zm-1.357-.406c-.643.391-1.273.59-2.149.59-.672 0-1.198-.168-1.584-.506-.384-.334-.578-.774-.578-1.326 0-.584.306-1.086.908-1.501.601-.416 1.365-.623 2.289-.623h2.416v1.856c-.228.614-.663 1.121-1.302 1.51z" fill-rule="evenodd"/>
  </g>
  <g fill="#FFF">
    <path d="M46.559 12.068h.551q.708-1.294 1.187-2.905.478-1.611.615-3.232H52.6v6.137h.922v2.97h-1.123v-1.969h-4.716v1.968h-1.123v-2.969zm3.33-5.127q-.108 1.109-.547 2.571-.44 1.463-1.001 2.556h3.09V6.941H49.89zm9.453 3.418q0 1.324-.679 2.066-.679.742-1.89.742-.756 0-1.337-.342-.582-.342-.894-.981-.313-.64-.313-1.485 0-1.313.674-2.05.674-.738 1.9-.738 1.172 0 1.855.755.684.754.684 2.033zm1.633 2.093q.637.715 1.863.715.498 0 .847-.078.35-.078.657-.259v-1q-.684.38-1.45.38-.674 0-1.023-.457-.35-.456-.35-1.364 0-1.86 1.402-1.86.473 0 1.201.283l.347-.923q-.684-.318-1.538-.318-1.26 0-1.927.733-.666.732-.666 2.094 0 1.338.637 2.054zm32.727-2.093q0 1.324-.679 2.066-.678.742-1.89.742-.756 0-1.337-.342t-.894-.981q-.312-.64-.312-1.485 0-1.313.674-2.05.674-.738 1.9-.738 1.171 0 1.855.755.683.754.683 2.033zM69.67 7.67v.898H67.91v4.502H66.76V8.567H65V7.67h4.668zm1.47 0h-1.25l2.168 5.4-.2.508q-.337.962-1.167.962-.333 0-.591-.059v.909q.361.083.742.083 1.47 0 2.1-1.685L75.25 7.67h-1.24q-1.123 3.257-1.24 3.64-.118.383-.162.652h-.039q-.083-.576-.332-1.23L71.14 7.668zm9.653 0v5.4H79.64V8.577h-2.422v4.492H76.07v-5.4h4.722zm2.788 2.168V7.669h-1.147v5.4h1.147V10.74h2.544v2.33h1.148V7.668h-1.148v2.168H83.58zm17.608.371q1.118-.2 1.118-1.157 0-1.382-2.12-1.382h-2.568v5.4h2.578q1.114 0 1.697-.412.584-.413.584-1.18 0-.512-.332-.834-.332-.323-.957-.396v-.039zm-45.777.151q0 1.87 1.382 1.87 1.367 0 1.367-1.87 0-1.85-1.377-1.85-.722 0-1.047.478-.325.479-.325 1.372zm34.36 0q0 1.87 1.382 1.87 1.367 0 1.367-1.87 0-1.85-1.376-1.85-.723 0-1.048.478-.325.479-.325 1.372zm11.136-1.677q.251.144.251.466 0 .391-.298.54-.297.149-.874.149h-1.22V8.538h1.391q.498 0 .75.144zm.09 2.173q.303.164.303.554 0 .81-1.182.81h-1.352v-1.528h1.323q.605 0 .908.164z"/>
  </g>
</svg>
