<svg width="128" height="37" xmlns:xlink="http://www.w3.org/1999/xlink" xmlns="http://www.w3.org/2000/svg">
  <defs>
    <linearGradient x1=".607" y1=".096" x2=".99" y2=".609" id="d">
      <stop offset="0" stop-color="#FF177B"/>
      <stop offset="1" stop-color="#FFEC73"/>
    </linearGradient>
    <linearGradient x1=".063" y1="-.44" x2="-1.196" y2="1.011" id="e">
      <stop offset="0" stop-color="#064AA2"/>
      <stop offset="1" stop-color="#63FFD4"/>
    </linearGradient>
    <linearGradient x1=".846" y1=".5" x2="-.073" y2="1" id="h">
      <stop offset="0" stop-color="#FF4521"/>
      <stop offset="1" stop-color="#8A33DB"/>
    </linearGradient>
    <linearGradient x1="0" y1="-.839" x2=".642" y2="1.403" id="i">
      <stop offset="0" stop-color="#00A3B5"/>
      <stop offset="1" stop-color="#D6FFA1"/>
    </linearGradient>
    <clipPath id="f">
      <use xlink:href="#a"/>
    </clipPath>
    <clipPath id="g">
      <use xlink:href="#b"/>
    </clipPath>
    <clipPath id="j">
      <use xlink:href="#c"/>
    </clipPath>
    <path d="M9.908 9.222L.356 0C.134.053 0 .223 0 .508v17.646c0 .242.096.387.214.436l9.694-9.368z" id="a"/>
    <path d="M.393 9.315l5.52-3.09L8.353 4.85l4.015-2.203L9.694 0 0 9.369c.108.035.298.016.447-.06" transform="translate(.002 .037)" id="b"/>
    <path d="M.514.106C.33.006.148-.023 0 .018l9.56 9.235 2.644-2.55-3.986-2.249-6.026-3.401L.514.106z" transform="translate(.065 .05)" id="c"/>
  </defs>
  <path d="M17.999 1.085h92.002c9.664 0 17.499 7.834 17.499 17.499v.002c0 9.664-7.835 17.499-17.499 17.499H17.999C8.335 36.085.5 28.25.5 18.585v-.001c0-9.665 7.835-17.5 17.499-17.5z" fill="none" stroke="#FFF"/>
  <path d="M8.543 4.454L.853.114C.425-.129 0 .018 0 .521V18.204c0 .378.304.541.675.332l7.868-4.441 1.528-.862 2.458-1.387 3.833-2.163c.45-.254.406-.602.027-.802-.38-.2-3.86-2.177-3.86-2.177l-3.986-2.25z" transform="translate(16.523 13.134)" fill="url(#d)"/>
  <path d="M9.908 9.222L.356 0C.134.053 0 .223 0 .508v17.646c0 .242.096.387.214.436l9.694-9.368z" fill="url(#e)" transform="translate(16.5 13.157)"/>
  <path d="M26.408 22.38l-9.552-9.223c-.222.053-.356.223-.356.509V31.31c0 .242.096.387.214.436l9.694-9.368z" fill="none"/>
  <g clip-path="url(#f)" transform="translate(16.5 13.157)">
    <path d="M12.545 6.68L8.554 4.43C8.54 4.462 1.279.355.855.145.425-.128 0 .02 0 .508v17.718c0 .39.304.554.642.364.403-.23 7.898-4.47 7.912-4.503l3.991-2.25c-.02.03 3.36-1.882 3.778-2.107.482-.283.438-.632.071-.798-.391-.235-3.87-2.216-3.849-2.251" fill="none"/>
  </g>
  <g>
    <path d="M17.107 31.695l5.52-3.09 2.44-1.376 4.014-2.203-2.673-2.646-9.694 9.369c.108.035.299.016.447-.059" fill="none"/>
    <g clip-path="url(#g)" transform="translate(16.713 22.343)">
      <path d="M8.554 4.42C8.54 4.453 1.279.346.855.136.425-.137 0 .009 0 .499v17.718c0 .39.304.553.642.363.403-.229 7.898-4.469 7.912-4.502l3.991-2.251c-.02.031 3.36-1.882 3.778-2.106.482-.284.438-.632.071-.799-.391-.234-3.87-2.215-3.849-2.25L8.554 4.42z" transform="translate(-.213 -9.177)" fill="url(#h)"/>
    </g>
  </g>
  <g>
    <path d="M.514.106C.33.006.148-.023 0 .018l9.56 9.235 2.644-2.55-3.986-2.249-6.026-3.401L.514.106z" transform="translate(16.849 13.134)" fill="url(#i)"/>
    <path d="M17.363 13.24c-.184-.1-.366-.129-.514-.088l9.56 9.236 2.644-2.55-3.987-2.25-6.026-3.4-1.677-.947z" fill="none"/>
    <g clip-path="url(#j)" transform="translate(16.784 13.085)">
      <path d="M12.262 6.753L8.27 4.503C8.256 4.534.995.426.572.217.142-.055-.284.09-.284.58v17.718c0 .39.304.553.642.363.404-.229 7.898-4.469 7.912-4.502l3.992-2.251c-.021.031 3.36-1.882 3.777-2.106.482-.284.439-.632.072-.799-.392-.234-3.87-2.215-3.85-2.25" fill="none"/>
    </g>
  </g>
  <g fill="#FFF">
    <path d="M81.777 25.473l.768-.756c.074-.077-.03-.02-.03-.02-.519.267-1.084.527-1.846.527-1.524 0-2.903-1.239-3.303-3.367l1.235-.1 3.77-1.591c-.114-.385-.322-1.104-1.123-1.658-.482-.318-1.075-.469-1.652-.469-1.651 0-3.676 1.274-3.676 3.87 0 1.254.498 2.693 1.636 3.53.82.62 1.623.654 2.136.654.481 0 1.023-.064 1.556-.316.176-.084.352-.202.53-.304zm-1.076-5.479c0 .235-.158.336-.46.453l-2.887 1.332c-.016-.303-.048-.606-.048-.89 0-1.822 1.19-2.346 1.823-2.346.855 0 1.572.778 1.572 1.451z" fill-rule="evenodd"/>
    <path d="M74.675 24.626c0 .65.111.75.636.801.274.034.547.049.817.082l-.591.368h-2.818c.37-.5.433-.55.433-.884v-.373l-.006-9.932h-1.244l1.198-.603h2.286c-.495.3-.644.482-.707 1.067l-.004 9.474"/>
    <path d="M70.304 18.859c.366.315 1.131.985 1.131 2.254 0 1.236-.666 1.82-1.338 2.371-.207.218-.448.453-.448.818 0 .37.241.57.415.72l.577.465c.7.62 1.34 1.187 1.34 2.34 0 1.571-1.454 3.156-4.2 3.156-2.312 0-3.43-1.153-3.43-2.39 0-.6.286-1.452 1.23-2.036.99-.633 2.33-.718 3.048-.767-.224-.303-.48-.62-.48-1.138 0-.283.081-.452.16-.65-.175.016-.35.034-.51.034-1.694 0-2.65-1.321-2.65-2.623 0-.769.334-1.621 1.022-2.239.91-.784 1.995-.919 2.858-.919h3.289l-1.023.604h-.991zm-.272 2.962c0 .302-.032.833-.4 1.217-.251.264-.68.466-1.078.466-1.366 0-1.986-1.849-1.986-2.964 0-.433.08-.883.349-1.23.253-.335.7-.551 1.112-.551 1.321 0 2.003 1.865 2.003 3.062zm-.851 4.434c-.132-.018-.211-.018-.37-.018-.147 0-1.016.033-1.69.272-.355.137-1.385.544-1.385 1.752 0 1.205 1.112 2.074 2.831 2.074 1.545 0 2.365-.782 2.365-1.836 0-.867-.53-1.324-1.751-2.244zM56.453 22.126c0 1.885 1.36 3.967 3.903 3.967 2.608 0 4.064-2.1 4.064-4.085 0-2.033-1.473-3.969-3.824-3.969-2.433 0-4.143 1.885-4.143 4.087zm6.373.735c0 .657-.094 1.33-.482 1.87a2.02 2.02 0 01-1.638.859c-1.945 0-2.73-2.749-2.73-4.415 0-.728.113-1.47.74-2.06a2.177 2.177 0 011.446-.572c1.99 0 2.664 2.833 2.664 4.318zM47.931 22.126c0 1.885 1.359 3.967 3.903 3.967 2.61 0 4.064-2.1 4.064-4.085 0-2.033-1.472-3.969-3.823-3.969-2.432 0-4.144 1.885-4.144 4.087zm6.374.735c0 .657-.096 1.33-.482 1.87-.37.54-1.01.859-1.637.859-1.943 0-2.73-2.749-2.73-4.415 0-.728.11-1.47.739-2.06a2.17 2.17 0 011.445-.572c1.99 0 2.665 2.833 2.665 4.318z" fill-rule="evenodd"/>
    <path d="M46.876 25.595l-2.153.516c-.873.143-1.656.27-2.486.27-4.154 0-5.737-3.194-5.737-5.694 0-3.053 2.243-5.883 6.083-5.883a8.45 8.45 0 012.307.327c1.129.332 1.657.74 1.986.979l-1.25 1.241-.528.124.376-.627c-.51-.52-1.446-1.478-3.223-1.478-2.376 0-4.168 1.886-4.168 4.64 0 2.959 2.046 5.742 5.329 5.742.964 0 1.46-.203 1.912-.392v-2.536l-2.275.128 1.206-.676h3.191l-.39.392c-.105.093-.12.125-.15.25-.015.144-.03.6-.03.76v1.917"/>
    <path d="M87.192 29.041v-4.247c.608.89 1.556 1.458 2.615 1.458 2.01 0 3.364-1.62 3.364-4.114 0-2.512-1.354-4.099-3.364-4.099-1.121 0-2.086.63-2.615 1.426v-1.23h-.81V29.04h.81zm2.508-10.21c1.688 0 2.64 1.458 2.64 3.371 0 1.916-.952 3.388-2.64 3.388-1.049 0-2.051-.895-2.487-1.649v-3.495c.436-.753 1.438-1.616 2.487-1.616z" fill-rule="evenodd"/>
    <path d="M94.28 15.235h.83v10.858h-.83V15.235zM104.15 28.293c.173.08.469.13.656.13.496 0 .842-.21 1.152-.956l.591-1.394-3.194-7.89h.905L107 25.02l2.712-6.837h.918l-3.896 9.545c-.404.984-1.04 1.457-1.913 1.457-.263 0-.608-.049-.81-.113l.138-.779"/>
    <path d="M101.736 25.368c.03.201.07.441.125.714h.94a5.325 5.325 0 01-.209-1.59v-3.88c0-.83-.272-1.466-.813-1.906-.542-.444-1.262-.667-2.15-.667-.893 0-1.617.227-2.17.676-.556.45-.817.972-.787 1.566l.017.042h.835c0-.44.19-.806.566-1.101.38-.29.878-.438 1.493-.438.672 0 1.191.162 1.56.484.37.32.554.763.554 1.326v.978h-1.902c-1.02 0-1.843.218-2.48.658-.637.438-.957 1.01-.957 1.715 0 .706.22 1.264.66 1.676.44.413 1.056.616 1.85.616.66 0 1.14-.138 1.647-.42.506-.28.902-.635 1.182-1.062 0 .208.014.413.039.613zm-1.072-.332c-.508.32-1.006.482-1.698.482-.53 0-.947-.137-1.251-.413-.304-.273-.456-.634-.456-1.085 0-.478.24-.889.716-1.229.475-.34 1.08-.51 1.808-.51h1.91v1.52c-.18.502-.524.917-1.029 1.235z" fill-rule="evenodd"/>
  </g>
  <g fill="#FFF">
    <path d="M36.503 8.678c0-1.538 1.19-2.528 2.67-2.528.991 0 1.64.455 2.044 1.011l-.724.403a1.662 1.662 0 00-1.32-.651c-1.007 0-1.755.732-1.755 1.765 0 1.018.748 1.766 1.755 1.766.519 0 .976-.227 1.205-.44V9.25h-1.526v-.755h2.41v1.824a2.798 2.798 0 01-2.09.894c-1.48 0-2.67-1.003-2.67-2.535M42.417 11.139V6.224h3.534v.76h-2.63V8.25h2.576v.759h-2.575v1.37h2.629v.759h-3.534M48.354 11.139V6.984h-1.538v-.76h3.967v.76h-1.538v4.155h-.89M53.956 6.224h.866v4.915h-.866V6.224zM57.298 11.139V6.984h-1.539v-.76h3.967v.76h-1.537v4.155h-.891"/>
    <path d="M65.316 6.15c-1.545 0-2.633 1.071-2.633 2.532 0 1.46 1.088 2.531 2.633 2.531 1.535 0 2.632-1.071 2.632-2.531 0-1.46-1.097-2.532-2.632-2.532zm0 .745c1.027 0 1.694.747 1.694 1.75 0 .994-.667 1.75-1.694 1.75-1.036 0-1.695-.756-1.695-1.75 0-1.003.66-1.75 1.695-1.75z" fill-rule="evenodd"/>
    <path d="M72.497 11.139l-2.65-3.514v3.514h-.89V6.224h.914l2.595 3.405V6.224h.89v4.915h-.86"/>
  </g>
</svg>
