<svg width="45" height="45" xmlns="http://www.w3.org/2000/svg">
  <path d="M45 22.5C45 34.926 34.926 45 22.5 45S0 34.926 0 22.5 10.074 0 22.5 0 45 10.074 45 22.5zm-44.043 0c0 11.898 9.645 21.543 21.543 21.543S44.043 34.398 44.043 22.5 34.398.957 22.5.957.957 10.602.957 22.5z" fill="#DCDCDC" fill-rule="evenodd"/>
  <path d="M21 12.83s.204-1.34 1.5-1.34c1.297 0 1.492 1.34 1.492 1.34H21zm8.202 5.664l.018.064v6.95l2.872 3.701v1.86H12.447v-1.865l2.995-3.702v-6.938l.015-.058c.941-3.708 3.24-5.613 6.803-5.613 3.558 0 5.902 1.9 6.942 5.601zM13.404 29.543v.568h17.73v-.574l-2.872-3.702v-7.144c-.935-3.259-2.906-4.84-6.003-4.84-3.093 0-5.016 1.577-5.86 4.833v7.156l-2.995 3.703zm11.969 2.02h-5.745s.62 2.394 2.93 2.394 2.815-2.394 2.815-2.394z" fill="#FF5252" fill-rule="evenodd"/>
</svg>
