<svg width="45" height="45" xmlns="http://www.w3.org/2000/svg">
  <g fill-rule="evenodd">
    <path d="M45 22.5C45 34.926 34.926 45 22.5 45S0 34.926 0 22.5 10.074 0 22.5 0 45 10.074 45 22.5zm-44.043 0c0 11.898 9.645 21.543 21.543 21.543S44.043 34.398 44.043 22.5 34.398.957 22.5.957.957 10.602.957 22.5z" fill="#DCDCDC"/>
    <path d="M14 22.79v.84h2.255v2.54H14v1h2.255V33h.845v-5.83H26v-1h-8.9v-2.54h8.672c3.432 0 5.228-1.684 5.228-4.925 0-3.215-1.757-5.147-5.16-5.7L25.772 13h-9.517v9.79H14zm3.1-8.95h8.638c2.982.494 4.418 2.084 4.418 4.865 0 2.766-1.408 4.085-4.384 4.085H17.1v-8.95z" fill="#FFF"/>
  </g>
</svg>
