<?xml version="1.0" encoding="utf-8"?>
<svg width="234" height="189" xmlns="http://www.w3.org/2000/svg">
  <defs>
    <filter filterUnits="userSpaceOnUse" color-interpolation-filters="sRGB" id="a">
      <feFlood flood-opacity="0" result="BackgroundImageFix"/>
      <feBlend in="SourceGraphic" in2="BackgroundImageFix" result="shape"/>
      <feGaussianBlur stdDeviation="5" result="effect0_gaussianBlur"/>
    </filter>
  </defs>
  <path d="M195.01 44.923c-16.244-5.994-24.225-31.43-56.372-39.89-32.147-8.462-69.093-7.01-88.733 21.214-19.64 28.222-2.891 81.763-23.852 89.856-20.96 8.093-40.579 56.682-8.983 59.584 31.596 2.903 98.57-23.52 110.069-25.262 11.499-1.741 44.193 13.008 63.811 16.936 19.618 3.927 42.54 25.223 42.54-4.124 0-29.346 1.044-44.876-18.718-63.54-19.762-18.665-3.518-48.78-19.762-54.774z" fill="#FF8A65" fill-opacity=".1" style="mix-blend-mode:multiply"/>
  <g filter="url(#a)" transform="translate(.5 .5)">
    <path d="M190.466 149.566c-14.153 5.186-21.106 27.193-49.114 34.513-28.008 7.32-60.197 6.063-77.308-18.354-17.111-24.418-2.52-70.739-20.78-77.741C25 80.982 7.908 38.945 35.436 36.433c27.527-2.511 85.878 20.349 95.896 21.856 10.019 1.507 38.503-11.254 55.595-14.651 17.093-3.398 37.064-21.823 37.064 3.567 0 25.389.909 38.825-16.309 54.973-17.217 16.148-3.065 42.202-17.217 47.388z" fill="#FF5252" fill-opacity=".1" style="mix-blend-mode:multiply"/>
  </g>
</svg>
