<svg width="45" height="45" xmlns:xlink="http://www.w3.org/1999/xlink" xmlns="http://www.w3.org/2000/svg">
  <defs>
    <clipPath id="b">
      <use xlink:href="#a"/>
    </clipPath>
    <path d="M0 0h25.313v25.313H0V0z" id="a"/>
  </defs>
  <path d="M45 22.5C45 34.926 34.926 45 22.5 45S0 34.926 0 22.5 10.074 0 22.5 0 45 10.074 45 22.5zm-44.043 0c0 11.898 9.645 21.543 21.543 21.543S44.043 34.398 44.043 22.5 34.398.957 22.5.957.957 10.602.957 22.5z" fill="#DCDCDC" fill-rule="evenodd"/>
  <path d="M9.844 9.844h25.312v25.312H9.844V9.844z" fill="none"/>
  <path d="M9.844 9.844h25.312v25.312H9.844V9.844z" fill="none"/>
  <g clip-path="url(#b)" transform="translate(9.844 9.844)">
    <g fill="#FF5252" fill-rule="evenodd">
      <path d="M19.945 2.769a1.704 1.704 0 00-1.167-.483c-4.942-.016-9.884-.016-14.826 0-.903.008-1.656.797-1.664 1.664a2769.27 2769.27 0 000 17.41c.008.917.8 1.657 1.664 1.665 5.804.018 11.607.018 17.41 0 .917-.009 1.657-.804 1.665-1.665.015-4.942.015-9.884 0-14.826a1.695 1.695 0 00-.483-1.166c-.864-.87-1.73-1.735-2.6-2.6zM3.15 3.955a.835.835 0 01.813-.807c1.646 0 3.291-.001 4.937-.003 3.29-.003 6.582-.007 9.873.003a.827.827 0 01.562.231c.873.857 1.732 1.727 2.595 2.595a.826.826 0 01.234.56c.039 4.119.024 8.238.009 12.356l-.009 2.465a.834.834 0 01-.802.807c-4.869.045-9.738.027-14.607.01l-2.797-.01a.832.832 0 01-.807-.802c-.046-4.837-.028-9.675-.01-14.513l.01-2.892z"/>
      <path d="M18.058 2.717a.454.454 0 00-.392-.43l-.04-.001H7.688c-.233.01-.42.2-.431.431v3.726c.003.928.802 1.666 1.664 1.674 2.49.008 4.982.008 7.473 0 .903-.008 1.656-.795 1.664-1.664.002-.832.002-1.663 0-2.495V2.717zm-9.94 1.531l.002-1.1h9.075v3.294a.832.832 0 01-.802.813c-2.082.02-4.165.012-6.247.004l-1.22-.004a.831.831 0 01-.806-.802 180.95 180.95 0 01-.003-2.205zM20.128 13.07c-.003-.925-.8-1.666-1.664-1.674a1811.55 1811.55 0 00-11.614 0c-.914.008-1.655.8-1.664 1.664-.007 2.12-.004 4.24-.002 6.36l.002 3.173c.022.138.07.27.178.35a.575.575 0 00.254.082h14.079c.044-.007.09-.007.133-.021.172-.056.27-.227.298-.41V13.07zM6.05 13.065a.832.832 0 01.813-.807l3.865-.002c2.578-.003 5.155-.006 7.732.002.44.005.8.382.806.802.02 2.023.013 4.046.007 6.07a957.81 957.81 0 00-.007 3.032H6.05v-9.097z"/>
    </g>
  </g>
</svg>
